<?xml version="1.0" encoding="utf-8"?>
<!-- Generator: Adobe Illustrator 21.1.0, SVG Export Plug-In . SVG Version: 6.00 Build 0)  -->
<svg version="1.1" id="Layer_1" xmlns="http://www.w3.org/2000/svg" xmlns:xlink="http://www.w3.org/1999/xlink" x="0px" y="0px"
	 viewBox="0 0 200 100" style="enable-background:new 0 0 200 100;" xml:space="preserve">
<style type="text/css">
	.st0{clip-path:url(#SVGID_2_);}
	.st1{fill:#2E3191;}
	.st2{fill-rule:evenodd;clip-rule:evenodd;fill:#FFFFFF;}
	.st3{fill-rule:evenodd;clip-rule:evenodd;fill:#3FAA45;}
</style>
<g>
	<defs>
		<polygon id="SVGID_1_" points="0.1,0.2 200,0.2 200,100 0.1,100 0.1,0.2 		"/>
	</defs>
	<use xlink:href="#SVGID_1_"  style="overflow:visible;fill-rule:evenodd;clip-rule:evenodd;fill:#2E3191;"/>
	<clipPath id="SVGID_2_">
		<use xlink:href="#SVGID_1_"  style="overflow:visible;"/>
	</clipPath>
	<g class="st0">
		<polygon class="st1" points="202.5,72.3 -2.4,72.3 -2.4,27.8 202.5,27.8 202.5,72.3 		"/>
	</g>
</g>
<g>
	<path class="st2" d="M164.1,50.6c-2.6-0.2-4.6-2.4-4.6-5.1c0-2.7,2-4.9,4.6-5.1v-2.7c-4.3,0.2-7.7,3.6-7.7,7.8
		c0,4.2,3.4,7.6,7.7,7.8V50.6L164.1,50.6z"/>
</g>
<g>
	<path class="st2" d="M164.8,37.7v2.7c2.6,0.2,4.6,2.4,4.6,5.1c0,2.7-2.1,4.9-4.6,5.1v2.7c4.3-0.2,7.7-3.6,7.7-7.8
		C172.4,41.3,169,37.9,164.8,37.7L164.8,37.7z"/>
</g>
<g>
	<polygon class="st2" points="153,53 152.7,53 150.3,53 150,53 150,52.7 150,38.3 150,38 150.3,38 152.7,38 153,38 153,38.3 
		153,52.7 153,53 	"/>
</g>
<g>
	<polygon class="st2" points="142.9,53 142.6,53 140.2,53 139.9,53 139.9,52.7 139.9,40.8 136.5,40.8 136.2,40.8 136.2,40.5 
		136.2,38.3 136.2,38 136.5,38 146.4,38 146.8,38 146.8,38.3 146.8,40.5 146.8,40.8 146.4,40.8 142.9,40.8 142.9,52.7 142.9,53 	"/>
</g>
<g>
	<polygon class="st2" points="119.3,54.1 118.8,53.5 109.1,44.4 109.1,44.3 109.1,44.3 108.5,43.6 108.5,52.7 108.5,53.1 
		108.2,53.1 106.2,53.1 105.8,53.1 105.8,52.7 105.8,37.9 105.8,37.1 106.4,37.6 115.7,46.6 115.7,46.6 115.7,46.6 116.5,47.4 
		116.5,38.3 116.5,38 116.8,38 119,38 119.3,38 119.3,38.3 119.3,53.3 119.3,54.1 	"/>
</g>
<g>
	<polygon class="st2" points="189.3,54.1 188.8,53.5 179.2,44.4 179.2,44.3 179.2,44.3 178.6,43.6 178.6,52.7 178.6,53.1 
		178.2,53.1 176.2,53.1 175.9,53.1 175.9,52.7 175.9,37.9 175.9,37.1 176.4,37.6 185.7,46.6 185.8,46.6 185.8,46.6 186.5,47.5 
		186.5,38.3 186.5,38 186.8,38 189,38 189.3,38 189.3,38.3 189.3,53.3 189.3,54.1 	"/>
</g>
<g>
	<polygon class="st2" points="124.5,53.1 124.3,53.1 121.7,53.1 121.2,53.1 121.5,52.6 128.4,37.8 128.7,37.2 129,37.8 135.9,52.6 
		136.2,53 135.7,53 133.1,53 132.9,53.1 132.9,52.9 129.2,44.5 128.7,43.4 128.3,44.5 124.5,52.9 124.5,53.1 	"/>
</g>
<g>
	<path class="st2" d="M87.9,50.6c-2.5-0.2-4.5-2.4-4.5-5.1c0-2.7,2-4.9,4.5-5.1v-2.7c-4.3,0.2-7.7,3.6-7.7,7.8
		c0,4.2,3.4,7.6,7.7,7.8V50.6L87.9,50.6z"/>
</g>
<g>
	<path class="st2" d="M88.6,37.7v2.7c2.6,0.2,4.6,2.4,4.6,5.1c0,2.7-2,4.9-4.6,5.1v2.7c4.3-0.2,7.7-3.6,7.7-7.8
		C96.2,41.3,92.8,37.9,88.6,37.7L88.6,37.7z"/>
</g>
<g>
	<polygon class="st2" points="15.6,53 15.3,53 12.9,53 12.6,53 12.6,52.7 12.6,38.3 12.6,38 12.9,38 15.3,38 15.6,38 15.6,38.3 
		15.6,52.7 15.6,53 	"/>
</g>
<g>
	<polygon class="st2" points="58.7,53 58.4,53 56,53 55.6,53 55.6,52.7 55.6,38.3 55.6,38 56,38 58.4,38 58.7,38 58.7,38.3 
		58.7,52.7 58.7,53 	"/>
</g>
<g>
	<polygon class="st2" points="33.9,54.1 33.4,53.5 23.8,44.4 23.8,44.3 23.8,44.3 23.2,43.6 23.2,52.7 23.2,53.1 22.8,53.1 
		20.8,53.1 20.5,53.1 20.5,52.7 20.5,37.9 20.5,37.1 21,37.6 30.4,46.6 30.4,46.6 30.4,46.6 31.1,47.4 31.1,38.3 31.1,38 31.4,38 
		33.6,38 33.9,38 33.9,38.3 33.9,53.3 33.9,54.1 	"/>
</g>
<g>
	<path class="st2" d="M70,53.3c-4.4,0-8-3.5-8-7.8c0-4.3,3.6-7.8,8-7.8c2.4,0,4.7,1,6.1,2.6l0.2,0.2l-0.2,0.2l-1.7,1.4l-0.2,0.2
		l-0.2-0.2c-0.9-1.1-2.3-1.7-3.9-1.7c-2.7,0-4.9,2.3-4.9,5c0,1.4,0.5,2.6,1.4,3.6c0.9,1,2.2,1.5,3.5,1.5c2.3,0,3.9-1.2,4.5-3.2
		l-0.8,0h-3h-0.3v-0.3v-1.9v-0.3h0.3h6.7h0.3l0,0.3v0.1v0C77.8,49.9,74.4,53.3,70,53.3L70,53.3z"/>
</g>
<g>
	<path class="st2" d="M48.4,39.1c-1.5-0.9-3-1.1-6-1.1h-0.2v2.8h1.4h0.1c2.3,0,3.1,0.8,3.8,1.5c0.9,1.1,1.4,4.3,0,6.3
		c-1,1.5-3.3,1.6-3.8,1.6h-0.1h-1.4V53h1.6c0,0,0,0,0.1,0c0.9,0,5.7-0.2,7.1-4.8C52.5,43.4,49.9,40,48.4,39.1L48.4,39.1z"/>
</g>
<g>
	<polygon class="st2" points="41.6,38 39,38 38.7,38 38.7,38.3 38.7,52.7 38.7,53 39,53 41.6,53 41.6,38 	"/>
</g>
<g>
	<polygon class="st3" points="101,61.8 189.3,61.8 189.3,60.1 101,60.1 101,61.8 	"/>
</g>
<g>
	<polygon class="st2" points="12.6,61.8 101,61.8 101,60.1 12.6,60.1 12.6,61.8 	"/>
</g>
</svg>
