<?xml version="1.0" encoding="utf-8"?>
<!-- Generator: Adobe Illustrator 22.0.1, SVG Export Plug-In . SVG Version: 6.00 Build 0)  -->
<svg version="1.1" id="Layer_1" xmlns="http://www.w3.org/2000/svg" xmlns:xlink="http://www.w3.org/1999/xlink" x="0px" y="0px"
	 viewBox="0 0 200 100" style="enable-background:new 0 0 200 100;" xml:space="preserve">
<style type="text/css">
	.st0{fill:none;stroke:#FFFFFF;stroke-width:0.75;stroke-miterlimit:10;}
	.st1{fill-rule:evenodd;clip-rule:evenodd;fill:#FFFFFF;}
	.st2{fill-rule:evenodd;clip-rule:evenodd;fill:#EC1164;}
</style>
<g>
	<polygon points="0,0 200,0 200,100.3 0,100.3 	"/>
</g>
<rect class="st0" width="200" height="100"/>
<g>
	<path class="st1" d="M28.1,61.8c-0.4,2.6-1.3,4.5-3,5.7c-1.6,1.2-4,1.8-7,1.8c-3,0-5.3-0.5-6.6-1.8c-1.3-1.3-1.7-3.3-1.3-5.9
		l0.6-4.3l8-3.5c-1.2,5.5-1.8,9.6-1.3,11.5c0,0.1,0.2,0.3,1,0.3c0.7,0,1.2-0.4,1.6-1.5c0.1-0.4,0.3-1.4,0.6-2.9l4.5-30.7h7.6
		L28.1,61.8z"/>
	<path class="st1" d="M50.4,30.5l-0.6,3.9h-7.1l-1.5,10.2h5.2l-0.5,3.6h-5.2l-1.8,12.5c-0.3,2.3-0.3,3.5-0.1,3.9
		c0.1,0.3,0.6,0.6,2,0.6l2.1-0.1c1.3,0,2.2-0.1,2.8-0.1l0.1,3.9h-6.7c-3,0-5.3-0.5-6.6-1.8c-1.3-1.3-1.7-3.3-1.3-5.9l4.6-30.9H50.4z
		"/>
	<path class="st1" d="M58.2,52h2.9l2.2-15.3c0.4-2.7-0.3-3.2-1-3.2c-0.5,0-1,0.1-1.4,0.2L58.2,52z M69.4,32c1.3,1.3,1.7,3.3,1.3,5.9
		L66.2,69h-7.6L60.6,56h-2.9L55.8,69h-7.5l5.3-36.5c3.2-2,6.5-2.3,9.2-2.3C65.9,30.2,68.1,30.7,69.4,32z"/>
	<path class="st1" d="M82.5,30.5L78,60.7c-0.3,2.3-0.3,3.5-0.1,3.9c0.1,0.3,0.6,0.6,2,0.6l2.1-0.1c1.3,0,2.2-0.1,2.8-0.1L85,69h-6.7
		c-3,0-5.3-0.6-6.6-1.8c-1.3-1.3-1.7-3.3-1.3-5.9l4.6-30.9H82.5z"/>
	<path class="st1" d="M94.1,61.6c-0.2,1.5-0.3,2.4-0.3,2.8c0.1,1,0.4,1.2,1,1.2c0.7,0,1.3-0.4,1.6-1.3c0.1-0.3,0.3-1.2,0.5-2.8
		l3.4-23.6c0.2-1.6,0.3-2.5,0.3-2.8c-0.1-0.9-0.4-1.2-1.1-1.2c-0.7,0-1.2,0.4-1.6,1.4c-0.1,0.4-0.3,1.3-0.5,2.8L94.1,61.6z
		 M90.1,37.7c0.4-2.6,1.3-4.5,3-5.8c1.6-1.2,4-1.8,7.1-1.8c3,0,5.3,0.5,6.6,1.8c1.3,1.3,1.7,3.3,1.3,5.9l-3.5,23.8
		c-0.4,2.6-1.3,4.6-2.9,5.8c-1.6,1.2-4,1.8-7.1,1.8c-3,0-5.3-0.6-6.6-1.8c-1.3-1.3-1.7-3.3-1.3-5.9L90.1,37.7z"/>
	<path class="st1" d="M108.8,67.5c-1.3-1.3-1.7-3.3-1.3-5.9l4.6-31.2h7.6l-3.8,25.7c-0.9,5.8-1.1,8.7-0.9,9.1
		c0.1,0.2,0.3,0.4,0.9,0.4c0.7,0,1.3-0.4,1.7-1.5c0.1-0.3,0.3-1.2,0.5-3l4.5-30.8h7.5l-4.6,31.3c-0.4,2.6-1.3,4.5-2.9,5.8
		c-1.6,1.2-4,1.8-7.1,1.8C112.4,69.3,110.1,68.8,108.8,67.5"/>
	<path class="st1" d="M140,33.7c-0.1,0.2-0.3,0.7-0.5,1.5c-0.3,1.1-0.6,3.1-1,6c-0.2,1.5-0.3,2.4-0.2,2.7c0.1,0.7,0.9,1.6,2.6,2.8
		c2.2,1.5,3.6,2.6,4.3,3.4c1.5,1.6,2,3.6,1.7,5.8l-0.3,2.1l-0.3,2c-0.5,3.1-1.2,5.4-2.4,6.7c-1.6,1.8-4.3,2.6-7.9,2.6
		c-3,0-5.3-0.6-6.6-1.8c-1.3-1.3-1.7-3.3-1.3-5.9l0.6-4.1l8.1-3.6l-1.1,7.4c-0.2,1.7-0.3,2.6-0.3,3c0.1,1.1,0.5,1.4,1,1.4
		c0.7,0,1.3-0.4,1.6-1.5c0.1-0.3,0.3-1.3,0.5-3l0.9-6.5c0.1-0.5-0.3-1.3-1.8-2.4l-3.2-2.3l-1.5-1.2c-1.7-1.3-2.4-3-2.1-5l0.9-6.4
		c0.4-2.5,1.3-4.4,2.8-5.5c1.5-1.1,3.8-1.7,6.7-1.7c2.8,0,5,0.5,6.3,1.8c1.3,1.2,1.6,3.2,1.3,5.6l-1,6.7h-7.2l0.9-6.5
		c0.2-1.5,0.3-2.4,0.3-2.8c-0.1-1-0.4-1.3-0.9-1.3c-0.3,0-0.6,0-0.7,0L140,33.7z"/>
	<path class="st2" d="M167.4,44.4h-7.1l1-6.7c0.4-2.4,1.2-4.2,2.8-5.4c1.5-1.2,3.7-1.7,6.5-1.7c2.8,0,4.9,0.5,6.1,1.6
		c1.3,1.2,1.6,3,1.3,5.3l-0.5,3.7c-0.4,2.5-0.6,4-0.7,4.4c-0.5,1.5-1.6,2.8-3.1,3.7c-1.1,0.6-2.7,1.6-4.8,2.9
		c-2.3,1.5-3.3,2.5-3.4,3l-0.1,0.8l-0.5,3.7c-0.2,1.6-0.3,2.6-0.3,3c0.1,1.1,0.5,1.4,1.1,1.4h8.5l-0.7,4.6H165c-3,0-5.2-0.5-6.5-1.8
		c-1.3-1.3-1.7-3.3-1.3-5.8l0.7-5c0.4-2.5,1.7-4.5,4-6.1c2.1-1.5,3.7-2.5,4.9-3.1c0.7-0.4,1.4-0.8,2.2-1.2c0.2-0.2,0.5-0.5,0.9-1.2
		c0.7-3.5,1.1-5.8,1.3-7.3c0.2-1.3,0.2-2,0.2-2.3c-0.1-0.6-0.3-0.8-0.9-0.8c-0.5,0-0.8,0.2-1,0.5c-0.3,0.4-0.7,1.9-1.1,4.6
		L167.4,44.4z"/>
	<path class="st2" d="M181,33.6c5.3-1.7,9-2.8,9-2.8l-5.6,38h-6.7l4.8-32.5h-1.9L181,33.6z"/>
</g>
</svg>
