<?xml version="1.0" encoding="utf-8"?>
<!-- Generator: Adobe Illustrator 21.1.0, SVG Export Plug-In . SVG Version: 6.00 Build 0)  -->
<svg version="1.1" id="Layer_1" xmlns="http://www.w3.org/2000/svg" xmlns:xlink="http://www.w3.org/1999/xlink" x="0px" y="0px"
	 viewBox="0 0 200 100" style="enable-background:new 0 0 200 100;" xml:space="preserve">
<style type="text/css">
	.st0{fill-rule:evenodd;clip-rule:evenodd;fill:#09054E;}
	.st1{fill:#FFFFFF;}
	.st2{fill-rule:evenodd;clip-rule:evenodd;fill:#FFFFFF;}
</style>
<g>
	<g>
		<polygon class="st0" points="-0.2,0 200,0 200,100 -0.2,100 -0.2,0 		"/>
	</g>
	<g>
		<g>
			<rect x="11" y="16.7" class="st0" width="178.8" height="56.6"/>
			<path class="st1" d="M190.2,73.6H10.6V16.3h179.6V73.6z M11.4,72.9h178V17.1h-178V72.9z"/>
		</g>
		<g>
			<g>
				<path class="st2" d="M45.3,45.5c0,2.5,1.8,3.9,4.1,3.9l0,1.8c-3.5,0-6.3-2-6.2-5.7c0-3.7,2.8-5.7,6.3-5.7v1.8
					C47.2,41.5,45.4,42.8,45.3,45.5L45.3,45.5z M49.5,49.4l0,1.8c3.5,0,6.2-1.9,6.3-5.6c0-3.7-2.7-5.8-6.2-5.8v1.8
					c2.2,0,4.1,1.4,4,4C53.5,48.1,51.7,49.3,49.5,49.4z"/>
			</g>
			<g>
				<path class="st2" d="M55.7,45.6c0,3.7-2.8,5.6-6.3,5.6c-3.5,0-6.3-2-6.2-5.7c0-3.7,2.8-5.7,6.3-5.7C53,39.8,55.7,41.8,55.7,45.6
					 M45.3,45.5c0,2.5,1.8,3.9,4.1,3.9c2.2,0,4.1-1.3,4.1-3.9c0-2.6-1.8-4-4-4C47.2,41.5,45.4,42.8,45.3,45.5"/>
			</g>
			<g>
				<path class="st2" d="M68.2,44.3l0-3.5c0-0.4-0.1-0.5-0.5-0.5V40l3.1,0v0.3c-0.3,0-0.4,0.1-0.4,0.5l-0.1,9.7
					c0,0.3,0.1,0.5,0.4,0.5v0.2l-3.1,0l0-0.2c0.4,0,0.5-0.2,0.5-0.5l0-4.1l-6.8-0.1l0,4.2c0,0.3,0.2,0.5,0.5,0.5v0.2l-3.1,0l0-0.2
					c0.5,0,0.5-0.2,0.5-0.5l0.1-9.7c0-0.4,0-0.5-0.5-0.5l0-0.3l3.1,0v0.2c-0.3,0-0.5,0.1-0.5,0.5l0,3.6L68.2,44.3z"/>
			</g>
			<g>
				<path class="st2" d="M68.2,44.3l0-3.5c0-0.4-0.1-0.5-0.5-0.5V40l3.1,0v0.3c-0.3,0-0.4,0.1-0.4,0.5l-0.1,9.7
					c0,0.3,0.1,0.5,0.4,0.5v0.2l-3.1,0l0-0.2c0.4,0,0.5-0.2,0.5-0.5l0-4.1l-6.8-0.1l0,4.2c0,0.3,0.2,0.5,0.5,0.5v0.2l-3.1,0l0-0.2
					c0.5,0,0.5-0.2,0.5-0.5l0.1-9.7c0-0.4,0-0.5-0.5-0.5l0-0.3l3.1,0v0.2c-0.3,0-0.5,0.1-0.5,0.5l0,3.6L68.2,44.3"/>
			</g>
			<g>
				<path class="st2" d="M85.7,50.6c0,0.3,0.1,0.5,0.3,0.5v0.2l-2.7,0v-0.2c0.2,0,0.2-0.1,0.2-0.2c0-0.1,0-0.2-0.2-0.4l-6.7-7.4
					l0,7.4c0,0.4,0.2,0.5,0.5,0.5v0.2l-2.7,0V51c0.3,0,0.3-0.2,0.3-0.5l0.1-9.7c0-0.4-0.1-0.5-0.3-0.5l0-0.3l3.2,0l0,0.3
					c-0.3,0-0.4,0.1-0.4,0.2c0,0.1,0.1,0.2,0.2,0.3l6.5,7.1l0.1-6.9c0-0.4,0-0.5-0.4-0.5v-0.3l2.7,0v0.3c-0.2,0-0.3,0.1-0.3,0.5
					L85.7,50.6z"/>
			</g>
			<g>
				<path class="st2" d="M85.7,50.6c0,0.3,0.1,0.5,0.3,0.5v0.2l-2.7,0v-0.2c0.2,0,0.2-0.1,0.2-0.2c0-0.1,0-0.2-0.2-0.4l-6.7-7.4
					l0,7.4c0,0.4,0.2,0.5,0.5,0.5v0.2l-2.7,0V51c0.3,0,0.3-0.2,0.3-0.5l0.1-9.7c0-0.4-0.1-0.5-0.3-0.5l0-0.3l3.2,0l0,0.3
					c-0.3,0-0.4,0.1-0.4,0.2c0,0,0.1,0.2,0.2,0.3l6.5,7.1l0.1-6.9c0-0.4,0-0.5-0.4-0.5v-0.3l2.7,0v0.3c-0.2,0-0.3,0.1-0.3,0.5
					L85.7,50.6"/>
			</g>
			<g>
				<path class="st2" d="M109.5,40.3v0.3c-0.3,0-0.4,0.1-0.4,0.5l-0.1,9.7c0,0.3,0.1,0.5,0.4,0.5v0.2l-2.9,0l0-0.2
					c0.2,0,0.3-0.2,0.3-0.5l0.1-6.9l-4,7.5l-0.2,0l-3.8-7.6l-0.1,6.9c0,0.3,0.1,0.5,0.5,0.5v0.2l-2.7,0v-0.2c0.3,0,0.4-0.2,0.4-0.5
					l0.1-9.7c0-0.4-0.1-0.5-0.4-0.5v-0.3l3.4,0v0.3c-0.3,0-0.4,0.1-0.4,0.2c0,0.2,0.1,0.3,0.3,0.8l2.9,6l3.4-6.3
					c0.1-0.1,0.2-0.3,0.2-0.3c0-0.2-0.1-0.3-0.3-0.3l0-0.3L109.5,40.3z"/>
			</g>
			<g>
				<path class="st2" d="M109.5,40.3v0.3c-0.3,0-0.4,0.1-0.4,0.5l-0.1,9.7c0,0.3,0.1,0.5,0.4,0.5v0.2l-2.9,0l0-0.2
					c0.2,0,0.3-0.2,0.3-0.5l0.1-6.9l-4,7.5l-0.2,0l-3.8-7.6l-0.1,6.9c0,0.3,0.1,0.5,0.5,0.5v0.2l-2.7,0v-0.2c0.3,0,0.4-0.2,0.4-0.5
					l0.1-9.7c0-0.4-0.1-0.5-0.4-0.5v-0.3l3.4,0v0.3c-0.3,0-0.4,0.1-0.4,0.2c0,0.2,0.1,0.3,0.3,0.8l2.9,6l3.4-6.3
					c0.1-0.1,0.2-0.3,0.2-0.3c0-0.2-0.1-0.3-0.3-0.3l0-0.3L109.5,40.3"/>
			</g>
			<g>
				<path class="st2" d="M115.7,50.8c0,0.3,0.1,0.5,0.6,0.5v0.2l-3.3,0v-0.2c0.5,0,0.6-0.2,0.6-0.5l0.1-9.7c0-0.4-0.1-0.5-0.6-0.5
					v-0.3l3.3,0l0,0.3c-0.5,0-0.6,0.1-0.6,0.5L115.7,50.8z"/>
			</g>
			<g>
				<path class="st2" d="M115.7,50.8c0,0.3,0.1,0.5,0.6,0.5v0.2l-3.3,0v-0.2c0.5,0,0.6-0.2,0.6-0.5l0.1-9.7c0-0.4-0.1-0.5-0.6-0.5
					v-0.3l3.3,0l0,0.3c-0.5,0-0.6,0.1-0.6,0.5L115.7,50.8"/>
			</g>
			<g>
				<path class="st2" d="M119.9,51.4c0.3,0,0.4-0.2,0.4-0.5l0.1-9.8c0-0.4-0.1-0.5-0.4-0.5v-0.3l3,0v0.3c-0.4,0-0.4,0.1-0.4,0.5
					l-0.1,8.6l7,0c0.3,0,0.5-0.2,0.5-0.3h0.2l0,2.5l-0.2,0c0-0.1-0.2-0.3-0.5-0.3l-9.5-0.1V51.4z"/>
			</g>
			<g>
				<path class="st2" d="M119.9,51.4c0.3,0,0.4-0.2,0.4-0.5l0.1-9.8c0-0.4-0.1-0.5-0.4-0.5v-0.3l3,0v0.3c-0.4,0-0.4,0.1-0.4,0.5
					l-0.1,8.6l7,0c0.3,0,0.5-0.2,0.5-0.3h0.2l0,2.5l-0.2,0c0-0.1-0.2-0.3-0.5-0.3l-9.5-0.1V51.4"/>
			</g>
			<g>
				<path class="st2" d="M132.9,51.5c0.2,0,0.3-0.2,0.3-0.5l0.1-9.7c0-0.4-0.1-0.5-0.3-0.5v-0.3l3,0v0.3c-0.4,0-0.5,0.1-0.5,0.5
					l-0.1,8.6l7,0.1c0.3,0,0.5-0.2,0.5-0.3h0.2l0,2.5h-0.1c0-0.2-0.2-0.3-0.5-0.3l-9.4-0.1V51.5z"/>
			</g>
			<g>
				<path class="st2" d="M132.9,51.5c0.2,0,0.3-0.2,0.3-0.5l0.1-9.7c0-0.4-0.1-0.5-0.3-0.5v-0.3l3,0v0.3c-0.4,0-0.5,0.1-0.5,0.5
					l-0.1,8.6l7,0.1c0.3,0,0.5-0.2,0.5-0.3h0.2l0,2.5h-0.1c0-0.2-0.2-0.3-0.5-0.3l-9.4-0.1V51.5"/>
			</g>
			<g>
				<path class="st2" d="M145.7,51.6c0.3,0,0.3-0.2,0.3-0.5l0.1-9.7c0-0.4,0-0.5-0.3-0.5v-0.3l9.7,0.1c0.3,0,0.5-0.1,0.5-0.3h0.3
					l0,2.5l-0.3,0c0-0.3-0.2-0.4-0.5-0.4l-7.2-0.1l0,2.8l4.7,0c0.3,0,0.5-0.1,0.5-0.3h0.2l0,2.5h-0.2c0-0.3-0.2-0.4-0.5-0.4l-4.7,0
					l0,3.1l7.3,0c0.3,0,0.6-0.2,0.6-0.3l0.2,0l0,2.4h-0.2c0-0.2-0.2-0.3-0.6-0.3l-9.8-0.1L145.7,51.6z"/>
			</g>
			<g>
				<path class="st2" d="M145.7,51.6c0.3,0,0.3-0.2,0.3-0.5l0.1-9.7c0-0.4,0-0.5-0.3-0.5v-0.3l9.7,0.1c0.3,0,0.5-0.1,0.5-0.3h0.3
					l0,2.5l-0.3,0c0-0.3-0.2-0.4-0.5-0.4l-7.2-0.1l0,2.8l4.7,0c0.3,0,0.5-0.1,0.5-0.3h0.2l0,2.5h-0.2c0-0.3-0.2-0.4-0.5-0.4l-4.7,0
					l0,3.1l7.3,0c0.3,0,0.6-0.2,0.6-0.3l0.2,0l0,2.4h-0.2c0-0.2-0.2-0.3-0.6-0.3l-9.8-0.1L145.7,51.6"/>
			</g>
			<g>
				<path class="st2" d="M162,45.3l3.2,0v2.1l-0.2-0.3l-3.2,0l0,4c0,0.3,0.1,0.5,0.4,0.5l0,0.2l-2.9,0v-0.2c0.3,0,0.3-0.2,0.3-0.5
					l0.1-9.7c0-0.4,0-0.5-0.3-0.5v-0.3l5.8,0l0,1.8l-3.2,0L162,45.3L162,45.3z M165.2,45.4v2.1l2.5,3.7c0.1,0.2,0.2,0.3,0.2,0.4
					c0,0.1,0,0.2-0.2,0.2l0,0.2l3.3,0v-0.2c-0.3,0-0.5-0.2-0.7-0.5l-2.8-4c1.9-0.3,3-1.4,3-3.3c0-1.8-1.3-3.2-4-3.3l-1.4,0l0,1.8
					l1.3,0c1.1,0,1.9,0.5,1.9,1.4c0,1-0.8,1.4-1.9,1.4L165.2,45.4z"/>
			</g>
			<g>
				<path class="st2" d="M161.9,51.2c0,0.3,0.1,0.5,0.4,0.5l0,0.2l-2.9,0v-0.2c0.3,0,0.3-0.2,0.3-0.5l0.1-9.7c0-0.4,0-0.5-0.3-0.5
					v-0.3l7.2,0.1c2.7,0,4,1.5,4,3.3c0,1.9-1.1,2.9-3,3.3l2.8,4c0.2,0.3,0.3,0.5,0.7,0.5v0.2l-3.3,0l0-0.2c0.2,0,0.2-0.2,0.2-0.2
					c0-0.1-0.1-0.2-0.2-0.4l-2.7-3.9l-3.2,0L161.9,51.2 M162,45.3l4.6,0c1.1,0,1.9-0.4,1.9-1.4c0-0.9-0.8-1.4-1.9-1.4l-4.6,0
					L162,45.3"/>
			</g>
			<g>
				<path class="st2" d="M40.1,39.8l0,0.3c-0.4,0-0.5,0.1-0.5,0.5l0,7.3c0,2.3-1.8,3.3-4.5,3.3c-1,0-1.8-0.3-2.4-0.4
					c-0.7-0.3-1.1-0.4-1.1-0.4c-0.1,0-0.3,0.1-0.3,0.2L31,50.3l1.1-2.6l0.2,0.1c0,0-0.1,0.2-0.1,0.3c0,0.4,1.4,1.3,2.9,1.3
					c1.3,0,2.3-0.4,2.3-1.8l0.1-6.9c0-0.4-0.2-0.5-0.5-0.5v-0.3L40.1,39.8z"/>
			</g>
			<g>
				<path class="st2" d="M40,39.8V40c-0.4,0-0.4,0.1-0.4,0.5l0,7.3c0,2.3-1.8,3.3-4.5,3.3c-1,0-1.8-0.3-2.4-0.4
					c-0.7-0.3-1.1-0.4-1.1-0.4c-0.1,0-0.3,0.1-0.3,0.2L31,50.3l1.1-2.6l0.2,0.1c0,0-0.1,0.2-0.1,0.3c0,0.4,1.4,1.3,2.9,1.3
					c1.3,0,2.3-0.4,2.3-1.8l0.1-6.9c0-0.4-0.2-0.5-0.5-0.5v-0.3L40,39.8"/>
			</g>
		</g>
		<g>
			<g>
				<path class="st1" d="M43.8,84.1l-3-6v5.4c0,0.1,0,0.2,0.1,0.3c0,0.1,0.1,0.1,0.3,0.1v0.2h-1.4V84c0.1,0,0.2-0.1,0.3-0.1
					c0-0.1,0.1-0.2,0.1-0.3v-5.9c0-0.1,0-0.2-0.1-0.3c0-0.1-0.1-0.1-0.3-0.1V77h1.9v0.2c-0.2,0.1-0.3,0.1-0.3,0.2
					c0,0,0.1,0.2,0.2,0.4l2.4,4.7l2.4-4.7c0.1-0.2,0.1-0.3,0.1-0.4c0-0.1-0.1-0.2-0.3-0.2V77H48v0.2c-0.1,0-0.2,0.1-0.3,0.1
					c0,0.1-0.1,0.2-0.1,0.3v5.9c0,0.1,0,0.2,0.1,0.3c0,0.1,0.1,0.1,0.3,0.1v0.2h-1.5V84c0.1,0,0.2-0.1,0.3-0.1
					c0-0.1,0.1-0.2,0.1-0.3v-5.4L43.8,84.1z"/>
			</g>
			<g>
				<path class="st1" d="M55,82.1h-3.9l-0.6,1.4c-0.1,0.1-0.1,0.2-0.1,0.3c0,0.1,0.1,0.2,0.3,0.2v0.2h-1.6V84c0.1,0,0.3-0.1,0.3-0.2
					c0.1-0.1,0.2-0.2,0.3-0.5l2.6-5.6c0.1-0.1,0.1-0.2,0.1-0.3c0-0.1-0.1-0.2-0.3-0.2V77H54v0.2c-0.2,0-0.3,0.1-0.3,0.2
					c0,0,0,0.1,0.1,0.3l2.5,5.4c0.2,0.4,0.3,0.6,0.4,0.7c0.1,0.1,0.2,0.1,0.4,0.2v0.2h-1.7V84c0.2,0,0.3-0.1,0.3-0.2
					c0-0.1,0-0.2-0.1-0.3L55,82.1z M54.7,81.5l-1.6-3.5l-1.6,3.5H54.7z"/>
			</g>
			<g>
				<path class="st1" d="M59.3,81.4v2.1c0,0.1,0,0.2,0.1,0.3c0,0.1,0.1,0.1,0.3,0.1v0.2h-1.5V84c0.1,0,0.2-0.1,0.3-0.1
					c0-0.1,0.1-0.2,0.1-0.3v-5.9c0-0.1,0-0.2-0.1-0.3c-0.1-0.1-0.1-0.1-0.3-0.1V77h1.5v0.2c-0.1,0-0.2,0.1-0.3,0.1
					c0,0.1-0.1,0.2-0.1,0.3v3l3.9-3c0.1-0.1,0.2-0.2,0.2-0.3c0-0.1-0.1-0.1-0.2-0.1V77h1.9v0.2c-0.2,0-0.4,0.1-0.6,0.3l-2.9,2.2
					l3.2,4c0.1,0.1,0.2,0.2,0.2,0.2c0.1,0,0.2,0,0.3,0.1v0.2h-1.8V84c0.2,0,0.2-0.1,0.2-0.2c0,0-0.1-0.2-0.2-0.3L61,80.2L59.3,81.4z
					"/>
			</g>
			<g>
				<path class="st1" d="M67.7,80.8v2.6h4.6c0.1,0,0.2,0,0.3-0.1c0.1-0.1,0.1-0.1,0.1-0.3H73v1.3h-0.2c0-0.1-0.1-0.2-0.2-0.3
					c-0.1,0-0.2-0.1-0.3-0.1h-5.8V84c0.1,0,0.2-0.1,0.3-0.1c0-0.1,0.1-0.2,0.1-0.3v-5.9c0-0.1,0-0.2-0.1-0.3c0-0.1-0.1-0.1-0.3-0.1
					V77h5.7c0.1,0,0.3,0,0.3-0.1c0.1-0.1,0.1-0.1,0.1-0.3h0.2V78h-0.2c0-0.1-0.1-0.2-0.1-0.3c-0.1-0.1-0.2-0.1-0.3-0.1h-4.6v2.4h3
					c0.1,0,0.3,0,0.3-0.1c0.1,0,0.1-0.1,0.1-0.3h0.2v1.3h-0.2c0-0.1-0.1-0.2-0.1-0.3c-0.1,0-0.2-0.1-0.3-0.1H67.7z"/>
			</g>
			<g>
				<path class="st1" d="M77.9,83.5v-5.9c0-0.1,0-0.2-0.1-0.3c0-0.1-0.1-0.1-0.3-0.1V77h1.5v0.2c-0.1,0-0.2,0.1-0.3,0.1
					c-0.1,0.1-0.1,0.2-0.1,0.3v5.9c0,0.1,0,0.2,0.1,0.3c0.1,0.1,0.1,0.1,0.3,0.1v0.2h-1.5V84c0.1,0,0.2-0.1,0.3-0.1
					C77.9,83.8,77.9,83.7,77.9,83.5z"/>
			</g>
			<g>
				<path class="st1" d="M84.2,77.7v5.8c0,0.1,0,0.2,0.1,0.3c0.1,0.1,0.1,0.1,0.3,0.1v0.2H83V84c0.1,0,0.2-0.1,0.3-0.1
					c0.1-0.1,0.1-0.2,0.1-0.3v-5.8h-2.5c-0.2,0-0.3,0-0.3,0.1c-0.1,0-0.1,0.1-0.1,0.3h-0.2v-1.3h0.2c0,0.1,0.1,0.2,0.1,0.3
					c0.1,0,0.2,0.1,0.3,0.1h5.7c0.2,0,0.3,0,0.3-0.1c0.1-0.1,0.1-0.1,0.1-0.3h0.2V78h-0.2c0-0.1-0.1-0.2-0.1-0.3
					c-0.1-0.1-0.2-0.1-0.3-0.1H84.2z"/>
			</g>
			<g>
				<path class="st1" d="M92.6,83.5h4.6c0.2,0,0.3,0,0.3-0.1c0.1-0.1,0.1-0.1,0.1-0.3h0.2v1.3h-0.2c0-0.1-0.1-0.2-0.1-0.3
					c-0.1,0-0.2-0.1-0.3-0.1h-5.8V84c0.1,0,0.2-0.1,0.3-0.1c0-0.1,0.1-0.2,0.1-0.3v-5.9c0-0.1,0-0.2-0.1-0.3c0-0.1-0.1-0.1-0.3-0.1
					V77h1.5v0.2c-0.1,0-0.2,0.1-0.3,0.1c0,0.1-0.1,0.2-0.1,0.3V83.5z"/>
			</g>
			<g>
				<path class="st1" d="M102.9,76.9c1.3,0,2.3,0.3,3.1,1c0.4,0.4,0.8,0.8,1,1.3c0.2,0.4,0.3,0.9,0.3,1.4c0,0.7-0.2,1.3-0.6,1.9
					c-0.4,0.7-1,1.1-1.8,1.4c-0.6,0.2-1.2,0.3-1.9,0.3c-1.3,0-2.3-0.3-3.1-1c-0.4-0.4-0.8-0.8-1-1.3c-0.2-0.4-0.3-0.9-0.3-1.4
					c0-0.7,0.2-1.4,0.6-2c0.4-0.6,1-1.1,1.8-1.4C101.5,77,102.1,76.9,102.9,76.9z M102.9,77.6c-1.1,0-1.9,0.3-2.6,0.9
					c-0.6,0.6-0.9,1.2-0.9,2.1c0,0.8,0.3,1.5,0.9,2.1c0.6,0.6,1.5,0.9,2.6,0.9c1.1,0,2-0.3,2.6-0.9c0.6-0.5,0.9-1.2,0.9-2
					c0-0.9-0.3-1.6-0.9-2.1c-0.3-0.3-0.7-0.5-1.1-0.7C103.9,77.7,103.4,77.6,102.9,77.6z"/>
			</g>
			<g>
				<path class="st1" d="M113,76.9c1.3,0,2.3,0.3,3.1,1c0.4,0.4,0.8,0.8,1,1.3c0.2,0.4,0.3,0.9,0.3,1.4c0,0.7-0.2,1.3-0.6,1.9
					c-0.4,0.7-1,1.1-1.8,1.4c-0.6,0.2-1.2,0.3-1.9,0.3c-1.3,0-2.3-0.3-3.1-1c-0.4-0.4-0.8-0.8-1-1.3c-0.2-0.4-0.3-0.9-0.3-1.4
					c0-0.7,0.2-1.4,0.6-2c0.4-0.6,1-1.1,1.8-1.4C111.6,77,112.3,76.9,113,76.9z M113,77.6c-1.1,0-1.9,0.3-2.6,0.9
					c-0.6,0.6-0.9,1.2-0.9,2.1c0,0.8,0.3,1.5,0.9,2.1c0.6,0.6,1.5,0.9,2.6,0.9c1.1,0,2-0.3,2.6-0.9c0.6-0.5,0.9-1.2,0.9-2
					c0-0.9-0.3-1.6-0.9-2.1c-0.3-0.3-0.7-0.5-1.1-0.7C114.1,77.7,113.6,77.6,113,77.6z"/>
			</g>
			<g>
				<path class="st1" d="M120.2,81.4v2.1c0,0.1,0,0.2,0.1,0.3c0.1,0.1,0.1,0.1,0.3,0.1v0.2H119V84c0.1,0,0.2-0.1,0.3-0.1
					c0-0.1,0.1-0.2,0.1-0.3v-5.9c0-0.1,0-0.2-0.1-0.3c0-0.1-0.1-0.1-0.3-0.1V77h1.5v0.2c-0.1,0-0.2,0.1-0.3,0.1
					c0,0.1-0.1,0.2-0.1,0.3v3l3.9-3c0.1-0.1,0.2-0.2,0.2-0.3c0-0.1-0.1-0.1-0.2-0.1V77h1.9v0.2c-0.2,0-0.4,0.1-0.6,0.3l-2.9,2.2
					l3.2,4c0.1,0.1,0.1,0.2,0.2,0.2c0.1,0,0.2,0,0.3,0.1v0.2h-1.8V84c0.2,0,0.2-0.1,0.2-0.2c0,0-0.1-0.2-0.2-0.3l-2.6-3.3
					L120.2,81.4z"/>
			</g>
			<g>
				<path class="st1" d="M131.6,80.8v2.6h4.6c0.1,0,0.3,0,0.3-0.1c0.1-0.1,0.1-0.1,0.1-0.3h0.2v1.3h-0.2c0-0.1-0.1-0.2-0.1-0.3
					c0,0-0.2-0.1-0.3-0.1h-5.8V84c0.1,0,0.2-0.1,0.3-0.1c0-0.1,0.1-0.2,0.1-0.3v-5.9c0-0.1,0-0.2-0.1-0.3c0-0.1-0.1-0.1-0.3-0.1V77
					h5.7c0.2,0,0.2,0,0.3-0.1c0.1-0.1,0.1-0.1,0.1-0.3h0.2V78h-0.2c0-0.1-0.1-0.2-0.1-0.3c-0.1-0.1-0.2-0.1-0.3-0.1h-4.6v2.4h3
					c0.1,0,0.3,0,0.3-0.1c0.1,0,0.1-0.1,0.1-0.3h0.2v1.3H135c0-0.1-0.1-0.2-0.1-0.3c-0.1,0-0.2-0.1-0.3-0.1H131.6z"/>
			</g>
			<g>
				<path class="st1" d="M143.6,82.1h-3.9l-0.6,1.4c-0.1,0.1-0.1,0.2-0.1,0.3c0,0.1,0.1,0.2,0.3,0.2v0.2h-1.6V84
					c0.1,0,0.3-0.1,0.3-0.2c0.1-0.1,0.2-0.2,0.3-0.5l2.7-5.6c0.1-0.1,0.1-0.2,0.1-0.3c0-0.1-0.1-0.2-0.3-0.2V77h1.8v0.2
					c-0.2,0-0.3,0.1-0.3,0.2c0,0,0,0.1,0.1,0.3l2.5,5.4c0.2,0.4,0.3,0.6,0.4,0.7c0.1,0.1,0.2,0.1,0.4,0.2v0.2H144V84
					c0.2,0,0.3-0.1,0.3-0.2c0-0.1,0-0.2-0.1-0.3L143.6,82.1z M143.3,81.5l-1.6-3.5l-1.6,3.5H143.3z"/>
			</g>
			<g>
				<path class="st1" d="M153.5,77.5l-0.8,1.3l-0.2-0.1c0.1-0.2,0.1-0.3,0.1-0.3c0-0.1-0.1-0.2-0.4-0.3c-0.7-0.3-1.5-0.5-2.3-0.5
					c-0.7,0-1.2,0.1-1.7,0.3c-0.2,0.1-0.4,0.3-0.6,0.5c-0.1,0.2-0.2,0.4-0.2,0.6c0,0.2,0.1,0.3,0.2,0.5c0.1,0.2,0.2,0.3,0.4,0.3
					c0.2,0.1,0.4,0.2,0.7,0.2c0.3,0,0.7,0.1,1.3,0.1c0.8,0,1.4,0.1,1.7,0.1c0.3,0,0.6,0.1,0.9,0.3c0.6,0.3,0.9,0.8,0.9,1.5
					c0,0.6-0.3,1.2-0.8,1.6c-0.6,0.5-1.4,0.7-2.5,0.7c-0.6,0-1.1-0.1-1.6-0.2c-0.5-0.1-1-0.3-1.6-0.7c-0.2-0.1-0.3-0.1-0.3-0.1
					c-0.1,0-0.1,0-0.3,0.2l-0.1-0.1l0.8-1.3l0.1,0.1c-0.1,0.1-0.1,0.2-0.1,0.3c0,0.1,0.2,0.3,0.7,0.5c0.4,0.2,0.8,0.3,1.2,0.4
					c0.4,0.1,0.8,0.1,1.2,0.1c0.9,0,1.6-0.2,2-0.6c0.3-0.3,0.5-0.6,0.5-0.9c0-0.5-0.3-0.8-0.8-1c-0.2-0.1-0.3-0.1-0.5-0.1
					c-0.2,0-0.7,0-1.5-0.1c-0.6,0-1.1-0.1-1.4-0.1c-0.3-0.1-0.6-0.2-0.9-0.3c-0.3-0.1-0.5-0.3-0.6-0.6c-0.1-0.2-0.2-0.5-0.2-0.8
					c0-0.5,0.2-0.9,0.6-1.3c0.3-0.3,0.7-0.5,1.2-0.6c0.5-0.2,1-0.2,1.6-0.2c0.5,0,0.9,0.1,1.4,0.1c0.4,0.1,0.9,0.3,1.4,0.5
					c0.1,0.1,0.2,0.1,0.2,0.1c0.1,0,0.2-0.1,0.3-0.2L153.5,77.5z"/>
			</g>
			<g>
				<path class="st1" d="M158.6,81v2.5c0,0.1,0,0.2,0.1,0.3c0,0.1,0.1,0.1,0.3,0.1v0.2h-1.5V84c0.1,0,0.2-0.1,0.3-0.1
					c0-0.1,0.1-0.2,0.1-0.3V81l-2.3-3c-0.3-0.3-0.4-0.5-0.5-0.6c-0.1-0.1-0.2-0.1-0.4-0.2V77h1.8v0.2c-0.2,0-0.3,0.1-0.3,0.2
					c0,0.1,0.1,0.3,0.3,0.5l1.8,2.5l1.8-2.5c0.2-0.2,0.2-0.4,0.2-0.4c0-0.1-0.1-0.1-0.2-0.2V77h1.7v0.2c-0.2,0-0.3,0.1-0.4,0.2
					c-0.3,0.3-0.4,0.5-0.5,0.6L158.6,81z"/>
			</g>
		</g>
	</g>
</g>
</svg>
