<?xml version="1.0" encoding="utf-8"?>
<!-- Generator: Adobe Illustrator 21.1.0, SVG Export Plug-In . SVG Version: 6.00 Build 0)  -->
<svg version="1.1" id="Layer_1" xmlns="http://www.w3.org/2000/svg" xmlns:xlink="http://www.w3.org/1999/xlink" x="0px" y="0px"
	 viewBox="0 0 200 100" style="enable-background:new 0 0 200 100;" xml:space="preserve">
<style type="text/css">
	.st0{fill:#FFFFFF;}
	.st1{fill-rule:evenodd;clip-rule:evenodd;fill:#FFFFFF;}
	.st2{fill:none;stroke:#FFFFFF;stroke-width:0.75;stroke-miterlimit:10;}
</style>
<rect width="200" height="100"/>
<g>
	<g>
		<g>
			<g>
				<path class="st0" d="M33.1,80.6h-2.7v6.2h-1.9v-6.2h-2.7v-1.4h7.4V80.6z"/>
			</g>
			<g>
				<path class="st0" d="M45,86.8h-1.9v-3.1h-3.8v3.1h-1.9v-7.6h1.9v3.1h3.8v-3.1H45V86.8z"/>
			</g>
			<g>
				<path class="st0" d="M55.4,86.8h-5.6v-7.6h5.5v1.4h-3.6v1.6h3.5v1.4h-3.5v1.8h3.7V86.8z"/>
			</g>
			<g>
				<path class="st0" d="M71.2,79.7v1.5c-0.5-0.2-1-0.4-1.4-0.5c-0.4-0.1-0.7-0.2-1-0.2c-0.3,0-0.6,0.1-0.8,0.2
					c-0.2,0.1-0.3,0.3-0.3,0.5c0,0.2,0.1,0.4,0.3,0.5c0.2,0.1,0.4,0.2,0.7,0.3c0.1,0.1,0.3,0.1,0.5,0.2c0.2,0.1,0.3,0.1,0.5,0.2
					c0.5,0.2,0.9,0.5,1.3,0.8c0.4,0.3,0.6,0.8,0.6,1.5c0,0.7-0.3,1.3-0.8,1.7c-0.5,0.4-1.2,0.6-2.1,0.6c-0.6,0-1-0.1-1.4-0.2
					c-0.4-0.1-0.7-0.2-1-0.4c0,0-0.1,0-0.1-0.1c0,0-0.1,0-0.2-0.1v-1.6c0.4,0.3,0.7,0.5,1,0.6c0.3,0.1,0.6,0.2,0.9,0.3
					c0.1,0,0.2,0,0.3,0c0.1,0,0.2,0,0.3,0c0.4,0,0.6-0.1,0.8-0.2c0.2-0.1,0.3-0.3,0.3-0.5c0-0.2-0.1-0.4-0.3-0.5
					c-0.2-0.1-0.5-0.3-0.8-0.4c-0.1-0.1-0.3-0.1-0.4-0.2c-0.1,0-0.3-0.1-0.4-0.2c-0.5-0.2-0.9-0.5-1.3-0.8c-0.4-0.3-0.6-0.8-0.6-1.5
					c0-0.6,0.3-1.2,0.8-1.6c0.5-0.4,1.2-0.6,2.1-0.6c0.1,0,0.3,0,0.4,0c0.1,0,0.2,0,0.4,0c0.3,0,0.6,0.1,0.9,0.2
					C70.6,79.5,70.9,79.6,71.2,79.7L71.2,79.7z"/>
			</g>
			<g>
				<path class="st0" d="M82.5,79.2h1.6v7.6h-1.9v-4.7l-2,2.4h-0.3l-2-2.4v4.7H76v-7.6h1.6l2.4,2.8L82.5,79.2z"/>
			</g>
			<g>
				<path class="st0" d="M96.7,86.8h-2l-0.6-1.5h-3.4l-0.6,1.5h-2l3.1-7.6h2.2L96.7,86.8z M92.3,81.1L91.2,84h2.3L92.3,81.1z"/>
			</g>
			<g>
				<path class="st0" d="M104.1,79.2c0.8,0,1.4,0.2,1.8,0.7c0.4,0.4,0.7,0.9,0.7,1.5c0,0.4-0.1,0.8-0.3,1.1c-0.2,0.3-0.5,0.6-1,0.8
					c0.2,0.1,0.3,0.2,0.4,0.3c0.1,0.1,0.2,0.3,0.3,0.5c0.2,0.3,0.4,0.6,0.5,1.1c0.2,0.5,0.5,1,0.8,1.7h-2.1c-0.2-0.3-0.3-0.6-0.4-1
					c-0.1-0.3-0.3-0.6-0.4-0.9c-0.2-0.4-0.4-0.7-0.6-0.9c-0.2-0.2-0.4-0.3-0.7-0.3h-0.5v3.1h-1.9v-7.6H104.1z M102.6,82.4h1
					c0.3,0,0.5-0.1,0.7-0.2c0.2-0.1,0.3-0.3,0.3-0.7c0-0.3-0.1-0.5-0.3-0.6c-0.2-0.1-0.5-0.2-0.8-0.2h-1V82.4z"/>
			</g>
			<g>
				<path class="st0" d="M117.5,80.6h-2.8v6.2h-1.9v-6.2h-2.7v-1.4h7.4V80.6z"/>
			</g>
			<g>
				<path class="st0" d="M133.1,79.7v1.5c-0.6-0.2-1-0.4-1.4-0.5c-0.4-0.1-0.7-0.2-1-0.2c-0.3,0-0.6,0.1-0.8,0.2
					c-0.2,0.1-0.3,0.3-0.3,0.5c0,0.2,0.1,0.4,0.3,0.5c0.2,0.1,0.4,0.2,0.7,0.3c0.1,0.1,0.3,0.1,0.5,0.2c0.2,0.1,0.3,0.1,0.5,0.2
					c0.5,0.2,0.9,0.5,1.3,0.8c0.4,0.3,0.6,0.8,0.6,1.5c0,0.7-0.3,1.3-0.8,1.7c-0.5,0.4-1.2,0.6-2.1,0.6c-0.6,0-1-0.1-1.4-0.2
					c-0.4-0.1-0.7-0.2-1-0.4c0,0-0.1,0-0.1-0.1c0,0-0.1,0-0.1-0.1v-1.6c0.4,0.3,0.7,0.5,1,0.6c0.3,0.1,0.6,0.2,0.9,0.3
					c0.1,0,0.2,0,0.3,0c0.1,0,0.2,0,0.3,0c0.4,0,0.6-0.1,0.8-0.2c0.2-0.1,0.3-0.3,0.3-0.5c0-0.2-0.1-0.4-0.3-0.5
					c-0.2-0.1-0.5-0.3-0.8-0.4c-0.1-0.1-0.3-0.1-0.4-0.2c-0.1,0-0.3-0.1-0.4-0.2c-0.5-0.2-0.9-0.5-1.3-0.8c-0.4-0.3-0.6-0.8-0.6-1.5
					c0-0.6,0.3-1.2,0.8-1.6c0.5-0.4,1.2-0.6,2.1-0.6c0.1,0,0.3,0,0.4,0c0.1,0,0.2,0,0.4,0c0.3,0,0.6,0.1,0.9,0.2
					C132.4,79.5,132.8,79.6,133.1,79.7L133.1,79.7z"/>
			</g>
			<g>
				<path class="st0" d="M145.4,86.8h-1.9v-3.1h-3.8v3.1h-1.9v-7.6h1.9v3.1h3.8v-3.1h1.9V86.8z"/>
			</g>
			<g>
				<path class="st0" d="M152.2,86.8h-1.9v-7.6h1.9V86.8z"/>
			</g>
			<g>
				<path class="st0" d="M160.4,79.2c0.8,0,1.4,0.2,1.8,0.7c0.4,0.4,0.7,0.9,0.7,1.5c0,0.4-0.1,0.8-0.3,1.1c-0.2,0.3-0.5,0.6-1,0.8
					c0.2,0.1,0.3,0.2,0.4,0.3c0.1,0.1,0.2,0.3,0.3,0.5c0.2,0.3,0.4,0.6,0.5,1.1c0.2,0.5,0.5,1,0.8,1.7h-2.1c-0.2-0.3-0.3-0.6-0.4-1
					c-0.1-0.3-0.3-0.6-0.4-0.9c-0.2-0.4-0.4-0.7-0.6-0.9c-0.2-0.2-0.4-0.3-0.7-0.3h-0.5v3.1H157v-7.6H160.4z M158.9,82.4h1
					c0.3,0,0.5-0.1,0.7-0.2c0.2-0.1,0.3-0.3,0.3-0.7c0-0.3-0.1-0.5-0.3-0.6c-0.2-0.1-0.5-0.2-0.8-0.2h-1V82.4z"/>
			</g>
			<g>
				<path class="st0" d="M173.8,80.6h-2.7v6.2h-1.9v-6.2h-2.7v-1.4h7.4V80.6z"/>
			</g>
		</g>
		<g>
			<g>
				<polygon class="st1" points="25.8,48.1 28.8,48.1 28.8,60.3 28.8,60.7 28.8,61 28.8,61.3 28.9,61.6 28.9,61.9 29,62.2 29,62.4 
					29.1,62.7 29.1,62.9 29.2,63.2 29.3,63.4 29.4,63.6 29.5,63.8 29.7,64 29.8,64.1 29.9,64.3 30.1,64.4 30.2,64.6 30.4,64.7 
					30.5,64.8 30.7,64.9 30.9,65 31.1,65.1 31.3,65.2 31.6,65.3 31.8,65.3 32.1,65.4 32.3,65.4 32.6,65.5 32.9,65.5 33.2,65.5 
					33.5,65.5 33.8,65.5 34.1,65.5 34.4,65.5 34.7,65.4 34.9,65.4 35.2,65.3 35.4,65.3 35.6,65.2 35.8,65.1 36.1,65 36.2,64.9 
					36.4,64.8 36.6,64.7 36.8,64.6 36.9,64.4 37,64.3 37.2,64.1 37.3,64 37.4,63.8 37.5,63.6 37.6,63.4 37.7,63.2 37.8,62.9 
					37.9,62.7 38,62.4 38,62.2 38,61.9 38.1,61.6 38.2,61.3 38.2,61 38.2,60.7 38.2,60.3 38.2,48.1 41.2,48.1 41.2,60.3 41.2,60.8 
					41.2,61.3 41.1,61.7 41.1,62.1 41,62.6 40.9,63 40.8,63.4 40.7,63.8 40.6,64.1 40.5,64.5 40.3,64.8 40.1,65.2 39.9,65.5 
					39.7,65.8 39.5,66 39.3,66.3 39,66.6 38.7,66.8 38.5,67 38.2,67.2 37.9,67.4 37.5,67.6 37.2,67.7 36.8,67.9 36.5,67.9 
					36.1,68.1 35.7,68.1 35.3,68.2 34.8,68.3 34.4,68.3 33.9,68.3 33.5,68.3 33,68.3 32.6,68.3 32.1,68.3 31.7,68.2 31.3,68.1 
					30.9,68.1 30.5,67.9 30.1,67.9 29.8,67.7 29.4,67.6 29.1,67.4 28.8,67.2 28.5,67 28.2,66.8 28,66.6 27.7,66.3 27.5,66 
					27.2,65.8 27.1,65.5 26.9,65.2 26.7,64.8 26.5,64.5 26.4,64.1 26.2,63.8 26.1,63.4 26,63 25.9,62.6 25.9,62.1 25.8,61.7 
					25.8,61.3 25.8,60.8 25.8,60.3 				"/>
			</g>
			<g>
				<path class="st1" d="M108.7,46.8l9.2,21h-3.2l-2.5-5.8h-6.9l-2.4,5.8h-3.3L108.7,46.8z M108.7,53.7l-2.4,5.7h4.9L108.7,53.7z"/>
			</g>
			<g>
				<path class="st1" d="M59.7,48.1h0.2h0.2l0.2,0h0.2h0.2l0.2,0h0.2l0.1,0h0.2l0.2,0h0.2l0.1,0l0.1,0l0.1,0l0.2,0.1l0.2,0.1
					l0.2,0.1l0.2,0.1l0.2,0.1l0.2,0.1l0.2,0.1l0.2,0.1l0.2,0.2l0.2,0.2l0.2,0.2l0.2,0.2l0.2,0.3l0.2,0.3l0.1,0.2l0.2,0.3l0,0.1
					l0.1,0.2l0.1,0.2l0,0.2l0.1,0.2l0,0.2l0,0.2l0,0.2l0,0.2l0,0.2l0,0.2V53l0,0.2v0.2v0.2v0.2V54v0.3l0,0.3l0,0.3l-0.1,0.3
					l-0.1,0.3l-0.1,0.3l-0.1,0.2l-0.1,0.2l-0.1,0.2L65,56.5l-0.1,0.2l-0.1,0.2l-0.2,0.2l-0.2,0.2l-0.2,0.2l-0.2,0.2l-0.2,0.2
					l-0.2,0.1l-0.2,0.1l-0.2,0.1L63,58.3l-0.2,0.1l-0.3,0.1l-0.2,0.1L62,58.6l-0.3,0.1l-0.3,0.1l-0.3,0h-0.3l-0.3,0l7.3,9.1H64
					l-6.7-8.8v8.8h-2.9V48.1h4.8h0.2H59.7z M57.3,50.8v5.6h1.3H59h0.3h0.3l0.3,0l0.2,0l0.3,0l0.2,0l0.2,0l0.2,0l0.2-0.1l0.2,0
					l0.2-0.1l0.1-0.1l0.1-0.1l0.1-0.1l0.1-0.1l0.1-0.1l0.1-0.1l0.1-0.1l0.1-0.1l0.1-0.1l0.1-0.1l0.1-0.1l0.1-0.1l0-0.1l0-0.2l0-0.2
					l0-0.2l0-0.2v-0.2l0-0.2v-0.2v-0.2l0-0.2v-0.2l0-0.2l0-0.2l0-0.2l0-0.2l-0.1-0.1l0-0.1L62.4,52l-0.1-0.1l-0.1-0.1l-0.1-0.1
					l-0.1-0.1L62,51.5l-0.1-0.1l-0.1-0.1l-0.1-0.1l-0.1-0.1l-0.2-0.1l-0.2-0.1l-0.2,0L61,51l-0.2,0l-0.2-0.1l-0.2,0l-0.3,0l-0.2,0
					h-0.3l-0.3,0H59h-0.3H57.3z"/>
			</g>
			<g>
				<path class="st1" d="M164.7,46.8l9.2,21h-3.3l-2.5-5.8h-6.9l-2.5,5.8h-3.2L164.7,46.8z M164.7,53.7l-2.5,5.7h4.9L164.7,53.7z"/>
			</g>
			<g>
				<path class="st1" d="M85.2,48.3l0.2,0l0.1,0l0.2,0.1l0.3,0.1l0.3,0.1l0.2,0.1l0.3,0.1l0.2,0.1l0.2,0.1l0.2,0.1l0.3,0.2l0.2,0.2
					l0.2,0.2l0.2,0.2l0.2,0.3l0.2,0.2l0.2,0.3l0.1,0.3l0.1,0.1l0.1,0.2l0.1,0.2l0.1,0.1l0,0.2l0.1,0.2l0,0.1l0,0.2l0,0.2l0,0.2
					l0,0.2v0.2l0,0.2v0.2v0.2v0.2v0.2v0.2l0,0.2v0.2l0,0.2l0,0.2l0,0.2l-0.1,0.2l-0.1,0.2l0,0.2L89,55.5l-0.1,0.2l-0.1,0.2l-0.1,0.2
					l-0.1,0.1l-0.1,0.2l-0.1,0.1l-0.1,0.1l-0.1,0.1l-0.1,0.1L88,56.8l-0.1,0.1l-0.1,0.1l-0.1,0.1l-0.2,0.1l-0.1,0.1l0.2,0.1l0.2,0.1
					l0.2,0.1l0.2,0.1l0.2,0.1l0.2,0.1l0.2,0.1l0.2,0.1l0.1,0.1l0.2,0.2l0.1,0.2l0.1,0.2l0.1,0.2l0.1,0.2l0.1,0.2l0.1,0.2l0.1,0.2
					l0.1,0.2l0.1,0.2l0.1,0.2l0.1,0.2l0,0.2l0,0.2l0,0.3l0,0.2v0.3v0.2v0.2v0.1v0.2v0.2l0,0.1l0,0.2v0.2l0,0.1l0,0.2l0,0.1l0,0.2
					l0,0.1L89.9,64l0,0.1l-0.1,0.1l-0.1,0.2l-0.1,0.3l-0.1,0.3l-0.1,0.3l-0.2,0.2l-0.2,0.3l-0.2,0.2l-0.2,0.2l-0.2,0.2l-0.2,0.2
					l-0.2,0.2l-0.3,0.2L87.5,67l-0.3,0.1L87,67.3l-0.3,0.1l-0.3,0.1l-0.2,0l-0.2,0l-0.2,0.1l-0.2,0l-0.2,0h-0.2l-0.2,0l-0.3,0
					l-0.3,0h-0.3l-0.3,0h-0.3h-0.3H83h-0.3l-0.4,0H78V48.1h4.3h0.3h0.3h0.2h0.2l0.2,0h0.2h0.2l0.2,0h0.2l0.2,0h0.2l0.2,0H85
					L85.2,48.3z M80.9,50.8v5.6h1.4h0.3h0.3l0.3,0h0.3l0.2,0l0.2,0l0.2,0l0.2,0l0.2-0.1l0.2,0l0.2-0.1l0.2-0.1l0.1-0.1l0.1-0.1
					l0.1-0.1l0.1-0.1l0.1-0.1l0.1-0.1l0.1-0.1l0.1-0.1l0.1-0.1l0.1-0.1l0.1-0.1l0.1-0.1l0-0.1l0-0.1l0.1-0.2l0-0.2v-0.2l0-0.2v-0.2
					v-0.2v-0.2v-0.2l0-0.2V53l0-0.2l0-0.2l-0.1-0.2l0-0.1l-0.1-0.1L86,52.1l-0.1-0.1l-0.1-0.1l-0.1-0.1l-0.1-0.1l-0.1-0.1l-0.1-0.1
					l-0.1-0.1l-0.1-0.1l-0.1-0.1l-0.1-0.1l-0.2-0.1l-0.2-0.1l-0.2,0L84.4,51l-0.2,0l-0.2,0l-0.2,0l-0.3,0l-0.3,0h-0.2h-0.3h-0.3
					H80.9z M80.9,58.9v6.2h1.4h0.2h0.2h0.2h0.2h0.2h0.2l0.2,0h0.2H84h0.2l0.1,0h0.1l0.1,0h0.1h0.1l0.1,0l0.2,0l0.2,0l0.2-0.1
					l0.1-0.1l0.1,0l0.1-0.1l0.1-0.1l0.1-0.1l0.1-0.1l0.1-0.1l0.1-0.1l0.1-0.1l0.1-0.1l0.1-0.2l0.1-0.1l0.1-0.2l0.1-0.2l0.1-0.2
					l0-0.2l0.1-0.2l0-0.2l0-0.2v-0.2v-0.2v-0.2l0-0.2v-0.2L87,61.2l0-0.2l-0.1-0.2l-0.1-0.2l-0.1-0.2l-0.1-0.2l-0.1-0.2L86.4,60
					l-0.1-0.1l-0.1-0.1L86,59.6l-0.2-0.1l-0.2-0.1l-0.1-0.1l-0.1,0l-0.1-0.1l-0.1,0l-0.1,0L85,59.1l-0.1,0l-0.1,0h-0.2l-0.2,0
					l-0.2,0H84l-0.2,0h-0.3h-0.3H83H80.9z"/>
			</g>
			<g>
				<polygon class="st1" points="128.3,67.9 128.3,46.8 142.2,62 142.2,48.1 145.1,48.1 145.1,69.2 131.2,54.2 131.2,67.9 				"/>
			</g>
			<g>
				<path class="st1" d="M145,39c0,0.3-0.3,0.6-0.6,0.6h-15.5c-0.3,0-0.6-0.3-0.6-0.6v-2.2c0-0.3,0.3-0.6,0.6-0.6h15.5
					c0.3,0,0.6,0.3,0.6,0.6V39z"/>
			</g>
			<g>
				<path class="st1" d="M135.3,33.4c0,0.5-0.4,1-1,1h-5c-0.6,0-1-0.5-1-1v-20c0-0.6,0.4-1,1-1h5c0.6,0,1,0.4,1,1V33.4z"/>
			</g>
			<g>
				<path class="st1" d="M145.1,33.4c0,0.6-0.5,1-1,1h-5c-0.5,0-1-0.4-1-1v-20c0-0.6,0.4-1,1-1h5c0.5,0,1,0.4,1,1V33.4z"/>
			</g>
		</g>
	</g>
</g>
<rect class="st2" width="200" height="100"/>
</svg>
