<?xml version="1.0" encoding="utf-8"?>
<!-- Generator: Adobe Illustrator 22.0.1, SVG Export Plug-In . SVG Version: 6.00 Build 0)  -->
<svg version="1.1" id="Layer_1" xmlns="http://www.w3.org/2000/svg" xmlns:xlink="http://www.w3.org/1999/xlink" x="0px" y="0px"
	 viewBox="0 0 200 100" style="enable-background:new 0 0 200 100;" xml:space="preserve">
<style type="text/css">
	.st0{fill:#EE402F;}
	.st1{clip-path:url(#SVGID_3_);}
	.st2{fill:#FFFFFF;}
</style>
<g>
	<g>
		<g>
			<polygon id="SVGID_1_" class="st0" points="0.1,0 200,0 200,100 0.1,100 			"/>
		</g>
		<g>
			<defs>
				<rect id="SVGID_2_" x="0.1" width="199.9" height="100"/>
			</defs>
			<clipPath id="SVGID_3_">
				<use xlink:href="#SVGID_2_"  style="overflow:visible;"/>
			</clipPath>
			<g class="st1">
				<polygon class="st0" points="0.1,31.2 200,31.2 200,68.7 0.1,68.7 				"/>
			</g>
		</g>
	</g>
	<g>
		<g>
			<g>
				<path class="st2" d="M77.2,51.3v3.3h7.3c1.6,0,1.9-0.9,1.9-1.6c0-0.8-0.5-1.7-1.9-1.7H77.2z M84.4,49.7c1.2,0,1.8-0.5,1.8-1.5
					c0-0.9-0.6-1.5-1.8-1.5h-7.2v3.1L84.4,49.7L84.4,49.7z M86,50.5c1.4,0.4,2,1.5,2,2.7c0,1.6-1,3-3.6,3h-8.7V45.1h8.5
					c3.1,0,3.5,1.8,3.5,2.9C87.7,49.3,87,50.2,86,50.5"/>
			</g>
			<g>
				<path class="st2" d="M54.4,46.5v0.2v0.2v4c0,2.9-0.9,3.7-4.4,3.7c-3.4,0-4.4-0.8-4.4-3.7v-4.1v-0.1v-0.1c0-0.8-0.7-1.5-1.6-1.5
					v5.8c0,4,1.7,5.5,6,5.5c4.4,0,6-1.5,6-5.5v-5.8C55.1,45.1,54.5,45.7,54.4,46.5 M43.9,47.5L43.9,47.5v-0.2V47.5z"/>
			</g>
			<g>
				<path class="st2" d="M94,51.6l1.8-4c0.3-0.7,0.7-1.1,1.4-1.1c0.7,0,1.1,0.4,1.4,1.1l1.7,4H94z M102.7,53.2l-2.6-5.9
					c-0.6-1.4-1.4-2.3-2.9-2.3s-2.3,0.9-2.9,2.3l-2.6,5.9l-1.3,2.9c0.2,0.1,0.4,0.1,0.6,0.1c0.6,0,1.2-0.4,1.4-0.9l0.1-0.1l0.9-2
					h7.7l0.9,1.9l0.1,0.3c0.3,0.5,0.8,0.8,1.4,0.8c0.2,0,0.4,0,0.6-0.1L102.7,53.2z"/>
			</g>
			<g>
				<path class="st2" d="M178.5,51.6l1.7-4c0.3-0.7,0.7-1.1,1.4-1.1s1.1,0.4,1.4,1.1l1.7,4H178.5z M187.1,53.2l-2.6-5.9
					c-0.7-1.4-1.4-2.3-2.9-2.3s-2.3,0.9-2.9,2.3l-2.6,5.9l-1.3,2.9c0.2,0.1,0.4,0.1,0.6,0.1c0.6,0,1.2-0.4,1.4-0.9l0.1-0.1l0.9-2
					h7.7l0.8,1.9l0.1,0.3c0.3,0.5,0.8,0.8,1.4,0.8c0.2,0,0.4,0,0.6-0.1L187.1,53.2z"/>
			</g>
			<g>
				<path class="st2" d="M118.3,46.6v7.8h-0.1c-1.3,0-1.6-0.4-4.1-4.3c-2.6-4.1-3.3-5-5.8-5h-1.2v11.1h0.1c0.8,0,1.5-0.7,1.5-1.5
					v-7.8h0.1c1.2,0,1.5,0.4,4.1,4.3c2.7,4.1,3.5,5,5.8,5h1.2V45.1C119,45.1,118.3,45.8,118.3,46.6"/>
			</g>
			<g>
				<path class="st2" d="M149.6,54.7c-3.4,0-5.2-0.5-5.2-4s1.8-4,5.2-4s5.2,0.5,5.2,4C154.8,54.1,153,54.7,149.6,54.7 M149.6,44.9
					c-4.5,0-6.8,1.3-6.8,5.7s2.3,5.7,6.8,5.7s6.8-1.3,6.8-5.7C156.4,46.2,154.1,44.9,149.6,44.9"/>
			</g>
			<g>
				<path class="st2" d="M68.4,50.7h-7v-4h7c1.5,0,2,1.1,2,2C70.4,49.6,69.9,50.7,68.4,50.7 M59.9,53v3.2c0.9,0,1.5-0.7,1.6-1.5
					v-0.1v-2.3h6.8c1.4,0,1.9,0.9,1.9,1.8v0.5v0.1c0,0.9,0.7,1.5,1.6,1.5l0,0v-2.1c0-0.4-0.1-0.7-0.2-1.1c-0.3-0.7-0.8-1.2-1.7-1.5
					c1.3-0.4,2.1-1.4,2.1-3c0-2.1-1.3-3.4-3.7-3.4h-8.5L59.9,53L59.9,53z"/>
			</g>
			<g>
				<path class="st2" d="M71.8,56.2L71.8,56.2L71.8,56.2z"/>
			</g>
			<g>
				<path class="st2" d="M70.2,54.6v0.1V54.6z"/>
			</g>
			<g>
				<polygon class="st2" points="61.5,54.6 61.5,54.6 61.5,54.7 				"/>
			</g>
			<g>
				<path class="st2" d="M141.2,45c-0.2,0-0.4,0-0.7,0c-0.9,0-1.7,0.2-2.5,0.5c-1,0.4-1.9,1.1-2.6,1.9c-0.4,0.5-0.8,1.1-1.1,1.7
					l-3.5-3.4l-0.2-0.2c-0.3-0.2-0.6-0.4-1-0.4c-0.5,0-0.9,0.2-1.2,0.5l1.5,1.4l0.9,0.8l3,2.9v5.5h1.6v-4.3v-0.2v-0.2
					c0-0.4,0.1-0.9,0.2-1.3c0.6-1.9,2.2-3.3,4.2-3.6l0,0C140.6,46.5,141.2,45.8,141.2,45L141.2,45"/>
			</g>
			<g>
				<path class="st2" d="M166,50.4L166,50.4c0,0.9,0.7,1.6,1.6,1.6l0,0l0,0h2.7l0,0l0,0v2.4h-6.2c-2.5,0-3.1-1.3-3.1-3.8
					s0.6-3.8,3.1-3.8h6l0,0h0.1c0.9,0,1.6-0.7,1.6-1.6v-0.1h-7.6c-3.4,0-4.7,1.9-4.7,5.6c0,3.7,1.2,5.6,4.7,5.6h7.8v-5.8h-6V50.4z"
					/>
			</g>
		</g>
		<g>
			<g>
				<path class="st2" d="M36,50.7c0,6.7-5.4,12.2-12.2,12.2c-6.7,0-12.2-5.4-12.2-12.2c0-6.7,5.4-12.2,12.2-12.2S36,44,36,50.7"/>
			</g>
			<g>
				<path class="st0" d="M23.1,55.5c-0.2,0.2-0.5,0.2-0.7,0s-0.2-0.5,0-0.7c0.1-0.2,0.2-0.3,0.4-0.5c0.3-0.3,0.6-0.6,1-0.9
					c-0.1-0.1-0.2-0.1-0.2-0.2c-0.4,0.4-0.8,0.8-1.3,1.1c-0.5,0.4-1,0.7-1.5,0.9s-1.1,0.4-1.7,0.5c-1.1,0-1.8-0.3-2.3-0.8
					c-0.5-0.6-0.7-1.3-0.8-2c0,0,0,0,0-0.1c0-0.7,0.4-1.5,0.9-2c0.5-0.4,1.1-0.7,1.9-0.7c0.2,0,0.4,0,0.7,0c1.5,0.2,2.8,1,4,1.8
					c0-0.1,0.1-0.1,0.1-0.2c-1.6-1.2-3-2.6-2.9-5.1c0,0,0,0,0-0.1c0.2-1.5,1.1-2.5,2.1-3c0.5-0.2,1-0.4,1.5-0.3
					c0.6,0.1,1.4,0.4,1.9,1c0.6,0.6,1,1.4,1,2.5c0,1.7-1.2,3.4-2.1,4.7c0.1,0.1,0.3,0.2,0.5,0.3c0.8-0.7,1.7-1.3,2.3-1.5
					c0.3-0.1,0.6-0.1,0.9-0.1c0.7,0,1.3,0.2,1.8,0.5c0.6,0.5,1.1,1.2,1.1,2v0.1c0,0.7-0.3,1.5-0.9,2s-1.4,0.9-2.6,0.9
					c-1.4,0-2.6-0.9-3.7-1.7c-0.4,0.4-0.7,0.7-1.1,1.1C23.4,55.2,23.3,55.3,23.1,55.5 M24.5,52.7c0.1-0.1,0.2-0.1,0.2-0.2
					c-0.1-0.1-0.2-0.1-0.3-0.2c-0.1,0.1-0.1,0.1-0.2,0.2C24.4,52.5,24.5,52.6,24.5,52.7z M28.2,51.3c-0.5,0.1-1.1,0.5-1.7,1.1
					c0.3,0.1,0.5,0.3,0.7,0.5c0.2,0.1,0.3,0.5,0.1,0.7c-0.2,0.2-0.5,0.3-0.7,0.1c-0.3-0.2-0.6-0.4-1-0.6c-0.1,0.1-0.2,0.2-0.3,0.3
					c0.9,0.6,1.8,1.4,2.9,1.4c0.9,0,1.5-0.3,1.9-0.6c0.4-0.4,0.5-0.9,0.5-1.3c0-0.1,0-0.1,0-0.1c0-0.5-0.3-0.9-0.7-1.1
					c-0.3-0.2-0.7-0.4-1.2-0.4C28.6,51.2,28.4,51.2,28.2,51.3z M22.8,52.6c-1.1-0.7-2.2-1.4-3.5-1.5c-0.1,0-0.3,0-0.5,0
					c-0.5,0-0.9,0.2-1.2,0.5c-0.4,0.3-0.6,0.8-0.6,1.2c0,0.5,0.2,1,0.5,1.3c0.3,0.4,0.8,0.6,1.6,0.5l0,0l0,0c0.4,0,0.8-0.1,1.2-0.3
					c0.5-0.2,0.9-0.5,1.3-0.8C22.1,53.2,22.4,53,22.8,52.6z M24.3,50.9c0.9-1.1,2-2.7,2-4.2c0-0.8-0.3-1.3-0.7-1.7
					c-0.4-0.4-0.9-0.6-1.4-0.7c-0.4,0-0.6,0-1,0.2c-0.7,0.3-1.3,1.1-1.5,2.2C21.7,48.6,22.8,49.9,24.3,50.9z"/>
			</g>
		</g>
	</g>
</g>
</svg>
