<?xml version="1.0" encoding="utf-8"?>
<!-- Generator: Adobe Illustrator 22.0.1, SVG Export Plug-In . SVG Version: 6.00 Build 0)  -->
<svg version="1.1" id="Layer_1" xmlns="http://www.w3.org/2000/svg" xmlns:xlink="http://www.w3.org/1999/xlink" x="0px" y="0px"
	 viewBox="0 0 200 100" style="enable-background:new 0 0 200 100;" xml:space="preserve" content-Type="image/svg+xml">
<style type="text/css">
	.st0{fill:none;stroke:#FFFFFF;stroke-width:0.75;stroke-miterlimit:10;}
	.st1{fill:#FFFFFF;}
</style>
<g>
	<polygon points="0,0 200,0 200,100.3 0,100.3 	"/>
</g>
<rect class="st0" width="200" height="100"/>
<g>
	<g>
		<path class="st1" d="M46.7,80.5c0,1.7,1.5,3.2,3.3,3.2c1,0,1.9-0.4,2.5-1.2l0.2-0.3l3,2.1l-0.3,0.3c-1.3,1.6-3.3,2.6-5.5,2.6
			c-3.8,0-7-3-7-6.7s3.1-6.7,7-6.7c2.2,0,4.2,1,5.5,2.6l0.3,0.3l-3,2.1l-0.2-0.3c-0.6-0.8-1.6-1.3-2.6-1.3
			C48.2,77.3,46.7,78.8,46.7,80.5 M82.2,74.2h3.3v12.6h-3.8l-5-7v7h-3.4V74.2h3.4l5.4,7.1L82.2,74.2L82.2,74.2z M98,74.2h3.8
			l-4.1,12.6h-5.5l-4.1-12.6H92l2.8,8.9c0,0.1,0.1,0.1,0.2,0.1s0.2,0,0.2-0.1l0,0L98,74.2z M129,86.8h-3.8l-2.2-4.4
			c-0.1-0.1-0.2-0.1-0.4-0.1h-1.5v4.5h-3.4V74.2h6.4c2.2,0,4,1.6,4.2,3.7c0.1,1.6-0.7,3-2,3.7L129,86.8z M124.9,78.2
			c0-0.4-0.3-0.7-0.7-0.7h-3v1.3h3C124.6,78.9,124.9,78.6,124.9,78.2 M145,74.2h10.1v3.3h-6.7v1.3h6v3h-6v1.5h6.7v3.3H145V74.2z
			 M142.2,83L142.2,83c0,2.7-2.2,4.3-5.4,4.3c-2.3,0-4.6-0.7-6.2-2.1l2-2.4c1.3,1,2.8,1.6,4.3,1.6c1,0,1.6-0.3,1.6-0.9l0,0
			c0-0.5-0.5-0.8-2.3-1.2c-2.8-0.6-5-1.4-5-4.1l0,0c0-2.4,1.9-4.1,5-4.1c2.2,0,3.9,0.6,5.3,1.7l-2,2.4c-1.3-0.8-2.2-1.1-3.4-1.1
			c-0.9,0-1.2,0.4-1.2,0.8l0,0c0,0.6,0.5,0.8,2.3,1.3C140.3,79.6,142.2,80.6,142.2,83 M70.7,80.5c0,3.7-3,6.7-6.8,6.7
			c-3.7,0-6.8-3-6.8-6.7s3.1-6.7,6.8-6.7C67.7,73.9,70.7,76.9,70.7,80.5 M67.1,80.5c0-1.8-1.4-3.2-3.2-3.2c-1.8,0-3.2,1.4-3.2,3.2
			c0,1.8,1.4,3.2,3.2,3.2C65.7,83.7,67.1,82.3,67.1,80.5 M104.5,74.2h10v3.3h-6.7v1.3h6v3h-6v1.5h6.7v3.3h-10V74.2z M85.2,35.3
			L96.5,39l-11.3,3.7v11.9l-7-9.6l-11.3,3.7l7-9.6l-7-9.6l11.3,3.7l7-9.6V35.3z M110,39L85.2,66h21.2l24.8-27l-24.8-27.1H85.2
			L110,39z"/>
	</g>
</g>
</svg>
