<?xml version="1.0" encoding="utf-8"?>
<!-- Generator: Adobe Illustrator 22.0.1, SVG Export Plug-In . SVG Version: 6.00 Build 0)  -->
<svg version="1.1" id="Layer_1" xmlns="http://www.w3.org/2000/svg" xmlns:xlink="http://www.w3.org/1999/xlink" x="0px" y="0px"
	 viewBox="0 0 200 100" style="enable-background:new 0 0 200 100;" xml:space="preserve">
<style type="text/css">
	.st0{fill:none;stroke:#FFFFFF;stroke-width:0.75;stroke-miterlimit:10;}
	.st1{fill:#FFFFFF;}
</style>
<g>
	<polygon points="0,0 200,0 200,100.3 0,100.3 	"/>
</g>
<rect class="st0" width="200" height="100"/>
<g>
	<path class="st1" d="M191,63v0.7h-12.1V63h1c1.2,0,2-0.3,2.5-1c0.3-0.4,0.5-1.4,0.5-3.1V41.5c0-1.4-0.1-2.3-0.3-2.7
		c-0.2-0.3-0.4-0.6-0.9-0.9c-0.6-0.3-1.3-0.5-1.9-0.5h-1v-0.7H191v0.7h-1c-1.2,0-2,0.3-2.5,1c-0.4,0.4-0.5,1.4-0.5,3.1v17.4
		c0,1.4,0.1,2.3,0.3,2.7c0.2,0.3,0.4,0.6,0.9,0.9c0.6,0.3,1.2,0.5,1.9,0.5C190.1,63,191,63,191,63z M145.2,36.7h7.7L170.2,57V41.4
		c0-1.7-0.2-2.7-0.6-3.1c-0.5-0.6-1.3-0.8-2.4-0.8h-1v-0.7h9.9v0.7h-1c-1.2,0-2,0.3-2.5,1c-0.3,0.4-0.5,1.4-0.5,2.9v22.7h-0.8
		l-18.6-21.7V59c0,1.7,0.2,2.7,0.6,3.1c0.5,0.6,1.3,0.8,2.4,0.8h1v0.7h-9.8V63h1c1.2,0,2.1-0.3,2.6-1c0.3-0.4,0.5-1.4,0.5-2.9V40.3
		c-0.8-0.9-1.4-1.5-1.9-1.8c-0.4-0.3-1.1-0.6-1.9-0.8c-0.4-0.1-1-0.2-1.8-0.2v-0.8H145.2z M132.7,53.2l-4.8-10.9L123,53.2H132.7z
		 M133.3,54.7h-11l-1.9,4.3c-0.5,1-0.7,1.8-0.7,2.3c0,0.4,0.2,0.8,0.6,1.1s1.3,0.5,2.7,0.6v0.7h-9V63c1.2-0.2,1.9-0.5,2.3-0.8
		c0.7-0.6,1.5-1.9,2.4-3.9l10-22.2h0.7l9.9,22.4c0.8,1.8,1.5,3,2.2,3.5c0.6,0.5,1.6,0.8,2.7,0.9v0.7H133V63c1.1,0,1.9-0.2,2.3-0.5
		c0.4-0.3,0.6-0.7,0.6-1.1c0-0.6-0.3-1.5-0.8-2.8L133.3,54.7z M117.5,36.7v0.7c-1,0.2-1.8,0.5-2.3,0.9c-0.7,0.7-1.4,1.7-2,3l-9.9,23
		h-0.8L92,41.1c-0.5-1.2-0.9-1.9-1.2-2.2c-0.3-0.4-0.8-0.7-1.3-1c-0.5-0.2-1.2-0.4-2.1-0.5v-0.7H99v0.7c-1.3,0.1-2.1,0.3-2.5,0.6
		s-0.6,0.7-0.6,1.2c0,0.7,0.3,1.7,1,3.1l7.2,15.8l6.7-15.6c0.7-1.5,1-2.6,1-3.2c0-0.4-0.2-0.8-0.6-1.1s-1.1-0.6-2-0.7
		c-0.1,0-0.2,0-0.3-0.1v-0.7C108.9,36.7,117.5,36.7,117.5,36.7z M70.3,37.6c-2.5,0-4.6,0.9-6.1,2.7c-1.9,2.2-2.9,5.5-2.9,9.8
		c0,4.4,1,7.8,3,10.2c1.5,1.8,3.5,2.7,6,2.7c2.7,0,4.9-1,6.6-3s2.6-5.1,2.6-9.3c0-4.6-1-8.1-2.9-10.3C75.1,38.5,73,37.6,70.3,37.6z
		 M70.7,36.1c3.7,0,6.9,1.3,9.6,4s4,6,4,10c0,4.1-1.4,7.5-4.1,10.2s-6,4.1-9.9,4.1s-7.2-1.3-9.8-4c-2.7-2.6-4-6.1-4-10.3
		c0-4.3,1.5-7.8,4.6-10.5C63.8,37.3,67,36.1,70.7,36.1z M52.9,63v0.7H40.7V63h1c1.2,0,2-0.3,2.5-1c0.3-0.4,0.5-1.4,0.5-3.1V41.5
		c0-1.4-0.1-2.3-0.3-2.7c-0.2-0.3-0.4-0.6-0.9-0.9c-0.6-0.3-1.3-0.5-1.9-0.5h-1v-0.7h12.1v0.7h-1c-1.2,0-2,0.3-2.5,1
		c-0.4,0.4-0.5,1.4-0.5,3.1v17.4c0,1.4,0.1,2.3,0.3,2.7c0.1,0.3,0.4,0.6,0.9,0.9c0.6,0.3,1.2,0.5,1.9,0.5C51.8,63,52.9,63,52.9,63z
		 M33.8,36.1l0.7,8.5h-0.7c-0.7-2.1-1.7-3.7-2.9-4.8c-1.7-1.6-3.8-2.3-6.5-2.3c-3.6,0-6.3,1.4-8.2,4.1c-1.6,2.3-2.4,5-2.4,8.2
		c0,2.6,0.5,4.9,1.6,7c1,2.1,2.4,3.7,4.1,4.7s3.4,1.5,5.2,1.5c1.1,0,2-0.1,3-0.4c1-0.3,1.9-0.6,2.8-1.1v-7.8c0-1.4-0.1-2.2-0.3-2.6
		c-0.2-0.4-0.6-0.7-1-1c-0.4-0.2-1.2-0.3-2.4-0.3V49h11v0.8h-0.5c-1.1,0-1.8,0.3-2.2,1c-0.3,0.5-0.4,1.5-0.4,2.9V62
		c-1.6,0.8-3.2,1.4-4.7,1.8c-1.6,0.4-3.3,0.6-5.2,0.6c-5.5,0-9.6-1.7-12.5-5c-2.1-2.5-3.2-5.4-3.2-8.7c0-2.4,0.6-4.6,1.8-6.8
		c1.4-2.6,3.4-4.6,5.8-6c2.1-1.2,4.5-1.7,7.3-1.7c1,0,2,0.1,2.8,0.2c0.8,0.2,2,0.5,3.6,1.1c0.8,0.3,1.3,0.4,1.6,0.4
		c0.3,0,0.5-0.1,0.7-0.3s0.3-0.7,0.3-1.4h0.8V36.1z"/>
</g>
</svg>
