<?xml version="1.0" encoding="utf-8"?>
<!-- Generator: Adobe Illustrator 21.1.0, SVG Export Plug-In . SVG Version: 6.00 Build 0)  -->
<svg version="1.1" id="Layer_1" xmlns="http://www.w3.org/2000/svg" xmlns:xlink="http://www.w3.org/1999/xlink" x="0px" y="0px"
	 viewBox="0 0 200 100" style="enable-background:new 0 0 200 100;" xml:space="preserve">
<style type="text/css">
	.st0{fill-rule:evenodd;clip-rule:evenodd;fill:#FFFFFF;}
	.st1{fill:#FFC10E;}
	.st2{fill:#3A2315;}
</style>
<g>
	<rect class="st0" width="200" height="100"/>
	<g>
		<g>
			<path class="st1" d="M39.8,40.2c0,0-0.1-0.1-0.2-0.1V40c0-1.4-0.5-4.2-2.7-6.2c-3-2.7-6.8-2.8-9.6-1.3c0,0-0.1,0.1-0.2,0.1
				l-0.1,0c-1.2-0.7-3.9-1.7-6.7-0.8c-3.9,1.3-5.8,4.6-5.9,7.8c0,0,0,0.1,0,0.3l-0.1,0c-1.2,0.7-3.4,2.6-4,5.5c-0.8,4,1.1,7.3,3.8,9
				c0,0,0.1,0.1,0.2,0.1v0.1c0,1.4,0.5,4.2,2.8,6.2c2.3,2.1,5.1,2.5,7.6,2h0h0c0.1,0,0.1,0,0.1,0.1v4.8c0,0.2,0,0.8-0.7,0.9
				c-0.6,0.1-0.8,0.1-1.1,0.2c0,0-0.3,0-0.5,0l0,0.1v0.1l0,0.1H31v0l0-0.1v-0.1l0-0.1c-0.1,0,0.1,0-0.4,0c-0.2,0-0.2,0-0.3,0
				c-0.2,0-0.4-0.1-0.7-0.1c-0.5-0.1-0.6-0.6-0.6-0.9v-4.8c0-0.1,0-0.1,0.1-0.1l0,0c1.2,0.3,2.7,0.3,4.2-0.1c3.9-1.2,5.8-4.5,6-7.7
				c0,0,0-0.1,0-0.3l0.1,0c1.2-0.7,3.4-2.5,4-5.4C44.3,45.2,42.5,41.9,39.8,40.2 M34.9,46.5c-0.3,0.2-0.7,0.6-0.9,0.9l-0.1,0.1l0,0
				h0c-0.5,0.7-0.8,1.4-0.8,1.4c0,0-0.9-1.9-3.2-1.2c-0.6,0.2-1,0-1.2-0.1h-0.1l0,0.1c1.1,3.1,3.1,2.6,3.1,2.6h0
				c-1.3,1.1-0.9,2.4-0.7,2.8c0,0,0,0.1,0.1,0.1h0.1c0.5-0.1,1.8-0.2,2.2-1.9l0,0c0,0,0.2,1.9,3.6,1.8c0.1,0,0.1,0,0.1,0l0-0.1
				c-0.2-0.1-0.5-0.4-0.6-1c-0.3-2.4-2.7-2.6-2.7-2.6s0.3-0.7,0.9-1.5c1.4,0.8,2.4,2,2.9,3c0.6,1.1,0.8,2.2,0.9,3.2
				c-1.8,0.8-3.9,1.3-7-0.3c-0.3-0.1-0.9-0.3-1.2-0.4c-1-0.2-1.8-0.1-1.8-0.1c0,0,1.1-1.7-0.6-3.4c-0.5-0.5-0.5-0.9-0.5-1.1l0,0
				l-0.1,0c-2.1,2.5-0.6,4-0.6,4h0c-1.6-0.6-2.5,0.4-2.8,0.8c0,0-0.1,0.1-0.1,0.2l0,0.1c0.3,0.4,1,1.5,2.7,1c0,0-1.6,1.1,0.2,4
				c0.1,0.1,0.1,0.1,0.1,0.1c0.1,0,0.1,0,0.1,0c0-0.2,0.1-0.6,0.6-1c1.9-1.5,0.9-3.7,0.9-3.7s0.8-0.1,1.9,0.1c0,1.5-0.5,3-1.1,4
				c-0.7,1.2-1.6,2-2.4,2.5l-0.1-0.1c-1.7-1.2-3.1-2.7-3.3-6.4c0-0.3-0.2-1-0.3-1.2c-0.4-0.9-0.9-1.6-0.9-1.6c0,0,2.1,0.1,2.6-2.2
				c0.2-0.6,0.5-0.9,0.7-0.9l0-0.1l-0.1,0c-3.2-0.6-3.8,1.4-3.8,1.4v0c-0.3-1.7-1.6-2-2-2.1c0,0-0.1,0-0.2,0l0,0.1
				c-0.2,0.4-0.8,1.6,0.5,2.9l0,0c0,0-1.8-0.8-3.3,2.2C16.6,53,16.5,53,16.6,53l0.1,0c0.2-0.1,0.6-0.2,1.2,0c2.2,0.9,3.6-1,3.6-1
				s0.5,0.6,0.9,1.7c-1.3,0.8-2.8,1.1-4,1.1c-1.2,0-2.3-0.3-3.2-0.8c0.1-2,0.7-4.1,3.7-6.1c0.3-0.2,0.7-0.6,0.9-0.9l0.1-0.1l0,0h0
				c0.6-0.7,0.8-1.4,0.8-1.4c0,0,1,1.8,3.3,1.1c0.6-0.2,1,0,1.2,0.1h0.1l0-0.1c-1.2-3.1-3.2-2.5-3.2-2.5h0c1.3-1.1,0.9-2.4,0.7-2.8
				c0,0,0-0.1-0.1-0.1l-0.1,0c-0.4,0.1-1.8,0.2-2.2,1.9l0,0c0,0-0.2-1.9-3.6-1.8c-0.1,0-0.1,0-0.1,0l0,0.1c0.2,0.1,0.5,0.3,0.6,1
				C17.6,44.8,20,45,20,45s-0.2,0.7-0.9,1.5c-1.4-0.8-2.4-1.9-3-3c-0.6-1.1-0.9-2.2-0.9-3.2c1.8-0.9,3.8-1.4,7,0.2
				c0.3,0.1,0.9,0.3,1.2,0.4c0.1,0,0.1,0,0.2,0l0,0l0,0c0.9,0.1,1.6,0,1.6,0c0,0-1.1,1.8,0.6,3.4c0.5,0.5,0.5,0.9,0.5,1.1l0,0l0.1,0
				c2.1-2.5,0.6-4.1,0.6-4.1l0,0c1.6,0.6,2.5-0.4,2.8-0.8c0,0,0.1-0.1,0.1-0.2l0-0.1c-0.3-0.4-1-1.5-2.7-1l0,0c0,0,1.6-1.1-0.3-4
				c-0.1-0.1-0.1-0.1-0.1-0.1c-0.1,0,0,0,0,0c0,0.2-0.1,0.6-0.6,1c-1.9,1.5-0.9,3.7-0.9,3.7s-0.7,0.1-1.8,0c0-1.6,0.5-3.1,1.1-4.1
				c0.6-1.1,1.5-1.9,2.3-2.4c1.6,1.1,3.1,2.7,3.3,6.3c0,0.3,0.2,1,0.3,1.2c0,0.1,0,0.1,0.1,0.2l0,0l0,0c0.4,0.9,0.8,1.4,0.8,1.4
				c0,0-2.1-0.1-2.6,2.3c-0.1,0.7-0.5,0.9-0.7,1l0,0l0.1,0c3.2,0.5,3.8-1.5,3.8-1.5v0c0.3,1.7,1.6,2,2.1,2c0,0,0.1,0,0.2-0.1l0-0.1
				c0.2-0.4,0.8-1.6-0.5-2.9l0,0c0,0,1.8,0.8,3.3-2.2c0.1-0.1,0.1-0.1,0.1-0.1l-0.1,0c-0.2,0.1-0.5,0.3-1.2,0
				c-2.2-0.9-3.6,1.1-3.6,1.1s-0.5-0.6-0.9-1.5c1.3-0.8,2.9-1.1,4.1-1.1c1.2,0,2.3,0.4,3.2,0.8C38.5,42.5,37.9,44.6,34.9,46.5
				 M30.4,32.4c-0.4,1.1,0.6,2.5,1.4,3.7c0.5,0.8,0.3,1.5,0.1,1.9c0,0.1-0.1,0.2,0,0.2c1.8,0.3,2.3-0.9,2.3-0.9
				c0.4-1-0.1-1.9-0.1-1.9l0.1,0.1c1.1,1.1,2.4,0.3,3.9,2.2c0.4,0.5,0.5,1.2,0.6,1.8v0v0.1c-0.6-0.3-2-0.8-3.7-0.7
				c-1.6,0-3.1,0.7-3.7,1l-0.1-0.2c0-0.9-0.2-2.2-1-3.8c-0.7-1.5-1.9-2.4-2.3-2.7L28,33C29.3,32.4,30.4,32.4,30.4,32.4 M15.9,36.8
				c0.8,1,2.5,0.7,3.9,0.6c0.9-0.1,1.4,0.5,1.7,0.9c0,0.1,0.1,0.2,0.1,0.1c1.2-1.4,0.3-2.5,0.3-2.5C21.3,35,20.4,35,20.4,35l0.1,0
				c1.5-0.4,1.4-2,3.8-2.3c0.6-0.1,1.3,0.2,1.8,0.4l0,0l0.1,0c-0.5,0.4-1.7,1.4-2.5,2.9c-0.7,1.4-0.9,3-1,3.8l-0.2-0.1
				c-0.8-0.4-2-0.9-3.8-1c-1.6-0.1-3,0.5-3.5,0.7l0-0.3C15.4,37.7,15.9,36.8,15.9,36.8 M12.5,51.7c1.2-0.2,1.9-1.8,2.5-3.2
				c0.4-0.9,1.1-1,1.6-1c0.1,0,0.1,0,0.1-0.1c-0.5-1.8-1.9-1.5-1.9-1.5c-1.1,0.2-1.6,1-1.6,1l0-0.1c0.4-1.5-1-2.2-0.1-4.5
				c0.2-0.6,0.8-1.1,1.2-1.4h0l0.1,0c0.1,0.6,0.3,2.1,1.3,3.6c0.8,1.3,2.1,2.3,2.8,2.7l-0.2,0.2c-0.8,0.5-1.8,1.3-2.8,2.8
				c-0.9,1.4-1.1,2.8-1.1,3.4l-0.2-0.1C13.1,52.6,12.5,51.7,12.5,51.7 M22.1,58.3c-0.5-0.7-0.3-1.5-0.1-1.9c0-0.1,0.1-0.2,0-0.2
				c-1.8-0.3-2.3,1-2.3,1c-0.4,1.1,0.1,1.9,0.1,1.9l-0.1-0.1c-1.1-1.1-2.4-0.2-3.9-2.1c-0.4-0.5-0.5-1.2-0.6-1.8l0,0l0-0.1
				c0.6,0.2,2,0.8,3.7,0.7c1.5-0.1,2.8-0.6,3.6-1l0,0c0,0.9,0.2,2.2,1,3.9c0.7,1.5,1.9,2.5,2.4,2.8l0.1,0.1l0,0
				C24.5,62,23.6,62,23.6,62C24,60.9,23,59.5,22.1,58.3 M37.8,57.7c-0.8-1-2.5-0.8-3.9-0.7c-0.9,0.1-1.4-0.5-1.7-0.9
				c0-0.1-0.1-0.2-0.2-0.1c-1.1,1.3-0.5,2.3-0.4,2.4c0.7,0.9,1.6,0.9,1.6,0.9l-0.1,0c-1.5,0.3-1.5,2-3.8,2.3
				c-0.6,0.1-1.2-0.1-1.7-0.3c0.3-0.2,1.7-1.3,2.6-3.1c0.7-1.3,0.9-2.8,0.9-3.6h0c0.8,0.4,2,1,3.8,1.1c1.6,0.1,3-0.4,3.5-0.6l0,0.3
				C38.3,56.8,37.8,57.7,37.8,57.7 M38.9,46c-0.4,0.8-1.1,1-1.6,1l0,0c-0.1,0-0.2,0-0.2,0.1c0.6,1.8,1.9,1.5,1.9,1.5
				c1.1-0.2,1.6-1,1.6-1l0,0.1c-0.5,1.5,1,2.3,0,4.5c-0.2,0.6-0.8,1-1.3,1.4l0,0l-0.1,0c-0.1-0.6-0.3-2.2-1.2-3.6
				c-0.8-1.4-2.1-2.3-2.8-2.8l0.2-0.1c0.8-0.5,1.8-1.3,2.8-2.8c0.9-1.4,1.1-2.8,1.2-3.4l0.2,0.1c1.1,0.8,1.7,1.7,1.7,1.7
				C40.2,43.1,39.5,44.7,38.9,46"/>
		</g>
		<g>
			<path class="st2" d="M66.3,42.2c-1.9,0-3.3,1-4.4,3.1c-0.6-2-1.8-3.1-3.7-3.1c-2,0-3.4,1-4.4,3.1v-2.8H51v13h3v-6.8
				c0-1.2,0.3-2.1,0.9-2.8c0.6-0.7,1.3-1,2.2-1c1.4,0,2.1,0.9,2.1,2.6v8.1h3.1v-6.8c0-1.3,0.3-2.2,0.8-2.8c0.5-0.6,1.2-1,2.1-1
				c1.5,0,2.2,0.8,2.2,2.5v8.1h3.1v-9.2c0-1.2-0.4-2.1-1.1-2.9C68.6,42.6,67.6,42.2,66.3,42.2"/>
		</g>
		<g>
			<path class="st2" d="M78.2,42.2c-1.8,0-3.3,0.6-4.5,1.9c-1.1,1.3-1.7,2.9-1.7,4.8c0,1.8,0.5,3.4,1.5,4.8c1,1.4,2.5,2.1,4.4,2.1
				c1.8,0,3.3-0.6,4.4-1.9c1.2-1.3,1.8-2.9,1.8-5c0-2-0.6-3.6-1.7-4.9C81.4,42.8,79.9,42.2,78.2,42.2 M78.1,53.4
				c-0.9,0-1.6-0.4-2.1-1.1c-0.5-0.7-0.8-1.8-0.8-3.2c0-1.3,0.2-2.4,0.7-3.2c0.5-0.8,1.2-1.2,2.3-1.2c1,0,1.7,0.4,2.2,1.1
				c0.5,0.8,0.7,1.8,0.7,3.2C81.1,51.9,80.1,53.4,78.1,53.4"/>
		</g>
		<g>
			<path class="st2" d="M90.2,52.8c-0.3-0.3-0.5-0.9-0.5-1.7v-6.4h2.6v-2.3h-2.6v-3.6L87,39.1l0,3.4h-1.8v2.3h1.6v6.8
				c0,1.1,0.1,2,0.4,2.5c0.3,0.5,0.7,1,1.2,1.3c0.6,0.3,1.2,0.5,2,0.5c0.5,0,1.2-0.1,2-0.3v-2.3c-0.3,0-0.5,0-0.7,0
				C91,53.2,90.5,53.1,90.2,52.8"/>
		</g>
		<g>
			<path class="st2" d="M101.4,41.9c-1.8,0-3.1,0.9-3.8,2.8v-6.9h-2.9v17.6h2.9v-6.8c0-1.5,0.3-2.6,0.8-3.3c0.6-0.7,1.3-1,2.1-1
				c0.5,0,1,0.2,1.4,0.6c0.4,0.4,0.6,1,0.6,1.9v8.5h2.9v-9C105.4,43.5,104.1,41.9,101.4,41.9"/>
		</g>
		<g>
			<path class="st2" d="M113.6,42.2c-1.9,0-3.4,0.7-4.5,1.9c-1.1,1.3-1.7,2.9-1.7,4.9c0,2.1,0.5,3.7,1.6,4.9
				c1.1,1.2,2.6,1.8,4.4,1.8c1.5,0,2.8-0.4,3.8-1.2c1-0.8,1.7-1.7,2-2.9l-2.7-0.4c-0.5,1.4-1.5,2.1-2.9,2.1c-0.8,0-1.4-0.2-1.9-0.6
				c-0.5-0.4-0.8-0.9-1-1.4c-0.2-0.5-0.3-1.2-0.3-2.1h8.9l0-0.3c0-2-0.5-3.6-1.5-4.9C116.9,42.8,115.5,42.2,113.6,42.2 M110.5,47.5
				c0.1-1,0.4-1.8,1-2.4c0.5-0.6,1.2-0.8,2-0.8c0.8,0,1.5,0.3,2.1,0.9c0.6,0.6,0.8,1.4,0.8,2.3H110.5z"/>
		</g>
		<g>
			<path class="st2" d="M126,43.3c-0.7,0.6-1.2,1.1-1.6,2.3v-3.1h-2.7v13h2.9v-6c0-0.9,0.2-2.3,0.7-3.3c0.5-1,1.5-1.5,3-1.5v-2.3
				c-0.2,0-0.3,0-0.4,0C127.4,42.4,126.7,42.7,126,43.3"/>
		</g>
		<g>
			<path class="st2" d="M139.6,42.1c-1.9,0-3.4,0.6-4.5,1.9c-1.1,1.3-1.7,2.9-1.7,4.9c0,2.1,0.6,3.7,1.7,4.9
				c1.1,1.2,2.6,1.8,4.4,1.8c1.5,0,2.8-0.4,3.8-1.1c1-0.8,1.7-1.7,2-2.9l-2.7-0.4c-0.5,1.4-1.5,2.1-2.9,2.1c-0.8,0-1.4-0.2-1.9-0.6
				c-0.5-0.4-0.8-0.9-1-1.4c-0.2-0.5-0.2-1.2-0.2-2.1h8.9l0-0.3c0-2-0.5-3.6-1.5-4.9C142.9,42.7,141.4,42.1,139.6,42.1 M136.5,47.3
				c0.1-1,0.4-1.8,0.9-2.4c0.5-0.5,1.2-0.8,2-0.8c0.8,0,1.5,0.3,2.1,0.9c0.6,0.6,0.8,1.4,0.8,2.3H136.5z"/>
		</g>
		<g>
			<path class="st2" d="M158.2,46.9c0-1.1-0.1-1.9-0.3-2.4c-0.2-0.5-0.5-0.9-0.9-1.3c-0.4-0.4-1-0.7-1.6-0.8
				c-0.6-0.2-1.5-0.3-2.5-0.3c-1.9,0-3.3,0.4-4.3,1.1c-1,0.7-1.5,1.6-1.7,2.7l2.5,0.4c0.2-1.4,1.3-2,3-2c1.8,0,2.8,0.7,2.8,2v1
				c-0.4,0-0.6,0-0.8,0c-5.3,0-7.9,1.5-7.9,4.5c0,1.1,0.4,2.1,1.2,2.9c0.8,0.8,1.8,1.1,3.1,1.1c2.2,0,3.6-1,4.4-2.9
				c0.1,1,0.2,1.8,0.5,2.6h2.8c-0.3-0.9-0.4-1.8-0.4-2.6 M155.4,49.9c0,0.9-0.3,1.7-0.9,2.4c-0.6,0.7-1.4,1.1-2.5,1.1
				c-0.8,0-1.4-0.2-1.7-0.6c-0.4-0.4-0.6-0.9-0.6-1.4c0-1.8,1.9-2.7,5.7-2.7V49.9z"/>
		</g>
		<g>
			<path class="st2" d="M173.5,52.7c-0.3-0.3-0.5-0.9-0.5-1.7v-6.4h2.6v-2.3h-2.6v-3.6l-2.7,0.2v3.4h-1.8v0c-1.5,0-1.6,0-1.7,0
				c-0.5,0-1.5,0.3-2.2,0.8c-0.7,0.6-1,1.1-1.4,2.3v-3.1h-2.7v13h2.9v-6c0-0.9,0.2-1.9,0.7-2.9c0.5-1,1.5-2,4.3-1.8l1.6,0v6.7
				c0,1.1,0.1,2,0.4,2.5c0.3,0.5,0.7,1,1.3,1.3c0.6,0.3,1.2,0.5,2,0.5c0.5,0,1.2-0.1,2-0.3v-2.3c-0.3,0-0.5,0-0.7,0
				C174.4,53.1,173.8,53,173.5,52.7"/>
		</g>
		<g>
			<path class="st2" d="M184.1,41.8c-1.8,0-3.1,0.9-3.8,2.8v-6.9h-2.9v17.6h2.9v-6.8c0-1.5,0.3-2.6,0.9-3.3c0.6-0.7,1.3-1,2.1-1
				c0.5,0,1,0.2,1.4,0.6c0.4,0.4,0.6,1,0.6,1.9v8.5h2.9v-9C188.1,43.3,186.7,41.8,184.1,41.8"/>
		</g>
		<g>
			<rect x="48.5" y="58.9" class="st1" width="141.7" height="0.4"/>
		</g>
		<g>
			<path class="st2" d="M149.9,65v2.5h-0.4l-0.3-0.7c-0.3,0.5-0.7,0.8-1.3,0.8c-0.7,0-1.2-0.3-1.5-0.8c-0.3-0.5-0.5-1.1-0.5-1.8
				c0-0.7,0.2-1.3,0.6-1.8c0.4-0.5,0.9-0.7,1.6-0.7c0.5,0,0.9,0.2,1.2,0.4c0.3,0.3,0.5,0.6,0.6,1.1l-0.8,0.1c-0.2-0.6-0.5-0.9-1-0.9
				c-0.4,0-0.6,0.1-0.9,0.4c-0.2,0.3-0.3,0.7-0.3,1.3c0,1.3,0.4,1.9,1.2,1.9c0.3,0,0.6-0.1,0.8-0.3c0.2-0.2,0.3-0.5,0.3-0.8h-1V65
				H149.9z"/>
		</g>
		<g>
			<path class="st2" d="M152.1,67.6c-0.5,0-1-0.2-1.2-0.6c-0.3-0.4-0.4-0.8-0.4-1.3c0-0.5,0.2-1,0.5-1.4c0.3-0.4,0.7-0.5,1.2-0.5
				c0.5,0,0.9,0.2,1.2,0.5c0.3,0.4,0.5,0.8,0.5,1.4s-0.2,1-0.5,1.4C153.1,67.4,152.6,67.6,152.1,67.6 M152.2,66.9
				c0.6,0,0.8-0.4,0.8-1.2c0-0.4-0.1-0.7-0.2-0.9c-0.1-0.2-0.3-0.3-0.6-0.3c-0.3,0-0.5,0.1-0.6,0.3c-0.1,0.2-0.2,0.5-0.2,0.9
				c0,0.4,0.1,0.7,0.2,0.9C151.7,66.8,151.9,66.9,152.2,66.9"/>
		</g>
		<g>
			<path class="st2" d="M156.1,67.6c-0.5,0-1-0.2-1.2-0.6c-0.3-0.4-0.4-0.8-0.4-1.3c0-0.5,0.2-1,0.5-1.4c0.3-0.3,0.7-0.5,1.3-0.5
				c0.5,0,0.9,0.2,1.2,0.5c0.3,0.4,0.5,0.8,0.5,1.4c0,0.6-0.2,1-0.5,1.4C157,67.4,156.6,67.6,156.1,67.6 M156.1,66.9
				c0.6,0,0.8-0.4,0.8-1.2c0-0.4-0.1-0.7-0.2-0.9c-0.1-0.2-0.3-0.3-0.6-0.3c-0.3,0-0.5,0.1-0.6,0.3c-0.1,0.2-0.2,0.5-0.2,0.9
				c0,0.4,0.1,0.7,0.2,0.9C155.6,66.8,155.8,66.9,156.1,66.9"/>
		</g>
		<g>
			<path class="st2" d="M161.5,67.5h-0.8v-0.7c-0.2,0.5-0.6,0.8-1.1,0.8c-0.5,0-0.8-0.2-1-0.6c-0.2-0.4-0.4-0.8-0.4-1.4
				c0-0.5,0.1-1,0.4-1.4c0.3-0.4,0.6-0.6,1.1-0.6c0.5,0,0.8,0.2,1,0.6v-1.8h0.8V67.5z M160.7,65.4c0-0.3-0.1-0.5-0.2-0.7
				c-0.1-0.2-0.3-0.2-0.6-0.2c-0.2,0-0.4,0.1-0.6,0.3c-0.1,0.2-0.2,0.5-0.2,1c0,0.8,0.3,1.2,0.8,1.2c0.2,0,0.4-0.1,0.5-0.3
				c0.2-0.2,0.2-0.4,0.2-0.7V65.4z"/>
		</g>
		<g>
			<polygon class="st2" points="80.6,67.6 77.6,67.6 77.6,62.6 78.5,62.6 78.5,66.7 80.6,66.7 			"/>
		</g>
		<g>
			<path class="st2" d="M82.5,67.6c-0.5,0-1-0.2-1.2-0.6c-0.3-0.4-0.4-0.8-0.4-1.3c0-0.5,0.2-1,0.5-1.4c0.3-0.4,0.7-0.5,1.3-0.5
				c0.5,0,0.9,0.2,1.2,0.5c0.3,0.4,0.5,0.8,0.5,1.4c0,0.6-0.2,1-0.5,1.4C83.4,67.5,83,67.6,82.5,67.6 M82.6,67
				c0.5,0,0.8-0.4,0.8-1.2c0-0.4-0.1-0.7-0.2-0.9c-0.1-0.2-0.3-0.3-0.6-0.3c-0.3,0-0.5,0.1-0.6,0.4c-0.1,0.2-0.2,0.5-0.2,0.9
				c0,0.4,0.1,0.7,0.2,0.9C82.1,66.8,82.3,67,82.6,67"/>
		</g>
		<g>
			<path class="st2" d="M86.5,67.6c-0.5,0-1-0.2-1.2-0.6c-0.3-0.4-0.4-0.8-0.4-1.3c0-0.5,0.1-1,0.5-1.4c0.3-0.4,0.7-0.5,1.3-0.5
				c0.5,0,0.9,0.2,1.2,0.5c0.3,0.4,0.5,0.8,0.5,1.4c0,0.6-0.2,1-0.5,1.4C87.4,67.5,87,67.6,86.5,67.6 M86.5,67
				c0.6,0,0.8-0.4,0.8-1.2c0-0.4-0.1-0.7-0.2-0.9c-0.1-0.2-0.3-0.3-0.6-0.3c-0.3,0-0.5,0.1-0.6,0.4c-0.1,0.2-0.2,0.5-0.2,0.9
				c0,0.4,0.1,0.7,0.2,0.9C86,66.8,86.2,67,86.5,67"/>
		</g>
		<g>
			<polygon class="st2" points="92.1,67.6 91.2,67.6 90.3,65.7 89.5,66.6 89.5,67.6 88.7,67.6 88.7,62.6 89.5,62.6 89.5,65.7 
				89.7,65.5 91.1,63.9 92,63.9 90.9,65.1 			"/>
		</g>
		<g>
			<path class="st2" d="M93.5,63.5h-0.8v-0.9h0.8V63.5z M93.5,67.6h-0.8v-3.7h0.8V67.6z"/>
		</g>
		<g>
			<path class="st2" d="M97.6,67.6h-0.8v-2.3c0-0.2-0.1-0.4-0.2-0.5c-0.1-0.1-0.2-0.2-0.4-0.2c-0.2,0-0.4,0.1-0.6,0.3
				c-0.2,0.2-0.2,0.5-0.2,0.9v1.9h-0.8v-3.7h0.8v0.8c0.3-0.6,0.6-0.9,1.1-0.9c0.3,0,0.6,0.1,0.8,0.3c0.2,0.2,0.4,0.6,0.4,1.1V67.6z"
				/>
		</g>
		<g>
			<path class="st2" d="M101.6,63.2v0.6h-0.3c-0.1,0-0.2,0-0.3,0c-0.1,0-0.2,0.1-0.3,0.3c0.3,0.2,0.4,0.5,0.4,0.8
				c0,0.3-0.1,0.6-0.4,0.8c-0.3,0.2-0.6,0.3-1.1,0.3c-0.2,0-0.4,0-0.7-0.1c-0.2,0.1-0.2,0.2-0.2,0.4l0.1,0.3
				c0.1,0.1,0.2,0.1,0.4,0.1h1.1c0.4,0,0.7,0.1,0.9,0.3c0.2,0.2,0.3,0.4,0.3,0.7c0,0.3-0.2,0.6-0.5,0.9c-0.3,0.2-0.8,0.3-1.4,0.3
				c-1.2,0-1.8-0.3-1.8-1c0-0.3,0.2-0.6,0.5-0.7c-0.2-0.2-0.3-0.4-0.3-0.6c0-0.3,0.2-0.6,0.6-0.8c-0.3-0.2-0.5-0.5-0.5-0.9
				c0-0.3,0.1-0.6,0.4-0.8c0.3-0.2,0.6-0.3,1.1-0.3c0.2,0,0.5,0,0.7,0.1c0.1-0.5,0.4-0.7,0.9-0.7H101.6z M98.9,67.4
				c-0.1,0.1-0.2,0.2-0.2,0.3c0,0.2,0.1,0.3,0.3,0.4c0.2,0.1,0.5,0.2,0.9,0.2c0.6,0,1-0.2,1-0.5c0-0.1-0.1-0.2-0.2-0.3
				c-0.1-0.1-0.2-0.1-0.4-0.1h-0.9C99.3,67.5,99.1,67.4,98.9,67.4 M99.8,65.6c0.5,0,0.7-0.2,0.7-0.6c0-0.2-0.1-0.3-0.2-0.4
				c-0.1-0.1-0.3-0.2-0.5-0.2s-0.4,0.1-0.5,0.2c-0.1,0.1-0.2,0.3-0.2,0.4c0,0.2,0.1,0.3,0.2,0.4C99.4,65.5,99.6,65.6,99.8,65.6"/>
		</g>
		<g>
			<path class="st2" d="M108.6,65v2.5h-0.4l-0.3-0.7c-0.3,0.5-0.7,0.7-1.3,0.7c-0.7,0-1.2-0.3-1.5-0.8c-0.3-0.5-0.5-1.1-0.5-1.8
				c0-0.7,0.2-1.3,0.6-1.8c0.4-0.5,0.9-0.7,1.6-0.7c0.5,0,0.9,0.1,1.2,0.4c0.3,0.3,0.5,0.6,0.6,1.1l-0.8,0.1c-0.1-0.6-0.5-0.9-1-0.9
				c-0.4,0-0.6,0.1-0.9,0.4c-0.2,0.3-0.3,0.7-0.3,1.3c0,1.2,0.4,1.9,1.2,1.9c0.3,0,0.6-0.1,0.8-0.3c0.2-0.2,0.3-0.5,0.3-0.8h-1V65
				H108.6z"/>
		</g>
		<g>
			<path class="st2" d="M110.8,67.6c-0.5,0-0.9-0.2-1.2-0.6c-0.3-0.4-0.4-0.8-0.4-1.3c0-0.5,0.2-1,0.5-1.4c0.3-0.4,0.7-0.5,1.2-0.5
				c0.5,0,0.9,0.2,1.2,0.5c0.3,0.4,0.5,0.8,0.5,1.4c0,0.6-0.2,1-0.5,1.4C111.7,67.5,111.3,67.6,110.8,67.6 M110.9,67
				c0.6,0,0.8-0.4,0.8-1.2c0-0.4-0.1-0.7-0.2-0.9c-0.1-0.2-0.3-0.3-0.6-0.3c-0.3,0-0.5,0.1-0.6,0.4c-0.1,0.2-0.2,0.5-0.2,0.9
				c0,0.4,0.1,0.7,0.2,0.9C110.4,66.8,110.6,67,110.9,67"/>
		</g>
		<g>
			<path class="st2" d="M114.7,67.7c-0.5,0-1-0.2-1.2-0.6c-0.3-0.4-0.4-0.8-0.4-1.3c0-0.5,0.2-1,0.5-1.4c0.3-0.4,0.7-0.5,1.2-0.5
				c0.5,0,0.9,0.2,1.2,0.5c0.3,0.4,0.5,0.8,0.5,1.4c0,0.6-0.2,1-0.5,1.4C115.7,67.5,115.2,67.7,114.7,67.7 M114.8,67
				c0.6,0,0.8-0.4,0.8-1.3c0-0.4-0.1-0.7-0.2-0.9c-0.1-0.2-0.3-0.3-0.6-0.3c-0.3,0-0.5,0.1-0.6,0.3c-0.1,0.2-0.2,0.5-0.2,0.9
				c0,0.4,0.1,0.7,0.2,0.9C114.3,66.9,114.5,67,114.8,67"/>
		</g>
		<g>
			<path class="st2" d="M120.2,67.6h-0.8v-0.7c-0.2,0.5-0.6,0.8-1.1,0.8c-0.5,0-0.8-0.2-1-0.6c-0.2-0.4-0.4-0.8-0.4-1.4
				c0-0.5,0.1-1,0.4-1.4c0.2-0.4,0.6-0.6,1.1-0.6c0.5,0,0.8,0.2,1,0.6v-1.8h0.8V67.6z M119.4,65.4c0-0.3-0.1-0.5-0.2-0.7
				c-0.2-0.2-0.3-0.2-0.6-0.2c-0.2,0-0.4,0.1-0.6,0.3c-0.1,0.2-0.2,0.5-0.2,1c0,0.8,0.3,1.2,0.8,1.2c0.2,0,0.4-0.1,0.5-0.3
				c0.2-0.2,0.2-0.4,0.2-0.7V65.4z"/>
		</g>
		<g>
			<path class="st2" d="M126.6,67.5v-5h1.8c0.7,0,1.2,0.2,1.6,0.7c0.4,0.5,0.6,1.1,0.6,1.8c0,0.7-0.2,1.3-0.6,1.8
				c-0.4,0.5-1,0.7-1.8,0.7H126.6z M127.5,66.8h0.7c0.4,0,0.7-0.2,1-0.4c0.3-0.3,0.4-0.8,0.4-1.3c0-0.5-0.1-0.9-0.4-1.2
				c-0.2-0.3-0.6-0.5-1-0.5h-0.8V66.8z"/>
		</g>
		<g>
			<path class="st2" d="M132.8,67.6c-0.5,0-1-0.2-1.2-0.6c-0.3-0.4-0.4-0.8-0.4-1.3c0-0.5,0.2-1,0.5-1.4c0.3-0.4,0.7-0.5,1.2-0.5
				c0.5,0,0.9,0.2,1.2,0.5c0.3,0.4,0.5,0.8,0.5,1.4c0,0.6-0.2,1-0.5,1.4C133.7,67.4,133.3,67.6,132.8,67.6 M132.8,66.9
				c0.6,0,0.8-0.4,0.8-1.2c0-0.4-0.1-0.7-0.2-0.9c-0.1-0.2-0.3-0.3-0.6-0.3c-0.3,0-0.5,0.1-0.6,0.3c-0.1,0.2-0.2,0.5-0.2,0.9
				c0,0.4,0.1,0.7,0.2,0.9C132.4,66.8,132.6,66.9,132.8,66.9"/>
		</g>
		<g>
			<path class="st2" d="M136,63.5h-0.8v-0.9h0.8V63.5z M136,67.5h-0.8v-3.7h0.8V67.5z"/>
		</g>
		<g>
			<path class="st2" d="M139.9,67.5h-0.8v-2.3c0-0.3,0-0.4-0.2-0.6c-0.1-0.1-0.3-0.2-0.4-0.2c-0.2,0-0.4,0.1-0.6,0.3
				c-0.2,0.2-0.3,0.5-0.3,0.8v1.9h-0.8v-3.7h0.8v0.9c0.3-0.6,0.6-0.9,1.1-0.9c0.3,0,0.6,0.1,0.8,0.3c0.2,0.2,0.3,0.6,0.3,1.1V67.5z"
				/>
		</g>
		<g>
			<path class="st2" d="M144,63.2v0.6h-0.3c-0.1,0-0.2,0-0.3,0c-0.1,0-0.2,0.1-0.2,0.3c0.3,0.2,0.4,0.5,0.4,0.8
				c0,0.3-0.1,0.6-0.4,0.8c-0.3,0.2-0.6,0.3-1.1,0.3c-0.2,0-0.4,0-0.7-0.1c-0.2,0.1-0.3,0.2-0.3,0.4l0.1,0.2
				c0.1,0.1,0.2,0.1,0.4,0.1h1.1c0.4,0,0.7,0.1,0.9,0.3c0.2,0.2,0.3,0.4,0.3,0.7c0,0.3-0.2,0.6-0.5,0.9c-0.3,0.2-0.8,0.3-1.4,0.3
				c-1.2,0-1.8-0.3-1.8-1c0-0.3,0.2-0.6,0.5-0.7c-0.2-0.2-0.3-0.4-0.3-0.6c0-0.3,0.2-0.6,0.6-0.8c-0.3-0.2-0.5-0.5-0.5-0.8
				c0-0.3,0.1-0.6,0.4-0.8c0.2-0.2,0.6-0.3,1.1-0.3c0.2,0,0.5,0,0.7,0.1c0.1-0.5,0.4-0.7,0.9-0.7H144z M141.2,67.4
				c-0.1,0.1-0.2,0.2-0.2,0.3c0,0.2,0.1,0.3,0.3,0.4c0.2,0.1,0.5,0.2,0.9,0.2c0.6,0,1-0.2,1-0.5c0-0.1-0.1-0.2-0.2-0.3
				c-0.1-0.1-0.2-0.1-0.4-0.1h-0.9C141.6,67.4,141.5,67.4,141.2,67.4 M142.1,65.5c0.5,0,0.7-0.2,0.7-0.6c0-0.2-0.1-0.3-0.2-0.4
				c-0.1-0.1-0.3-0.2-0.5-0.2c-0.2,0-0.4,0.1-0.5,0.2c-0.1,0.1-0.2,0.3-0.2,0.4c0,0.2,0.1,0.3,0.2,0.4
				C141.7,65.5,141.9,65.5,142.1,65.5"/>
		</g>
		<g>
			<rect x="122.9" y="66.5" class="st2" width="1" height="1"/>
		</g>
	</g>
</g>
</svg>
