<?xml version="1.0" encoding="utf-8"?>
<!-- Generator: Adobe Illustrator 21.1.0, SVG Export Plug-In . SVG Version: 6.00 Build 0)  -->
<svg version="1.1" id="Layer_1" xmlns="http://www.w3.org/2000/svg" xmlns:xlink="http://www.w3.org/1999/xlink" x="0px" y="0px"
	 viewBox="0 0 207 225" style="enable-background:new 0 0 207 225;" xml:space="preserve">
<style type="text/css">
	.st0{fill:#FFFFFF;}
	.st1{clip-path:url(#SVGID_2_);}
	.st2{fill:#EA2227;}
</style>
<rect width="207" height="225"/>
<g>
	<g>
		<g>
			<path class="st0" d="M14.1,213.3H9.4v4.4h5.3v1.3H7.8v-12.2h6.6v1.3h-5v3.8h4.7V213.3z"/>
			<path class="st0" d="M17.4,210.3l1.2,1.9c0.3,0.5,0.6,0.9,0.9,1.4h0.1c0.3-0.5,0.6-1,0.9-1.4l1.2-1.9h1.7l-3,4.2l3.1,4.5h-1.8
				l-1.3-2c-0.3-0.5-0.6-1-0.9-1.5h0c-0.3,0.5-0.6,1-0.9,1.5l-1.3,2h-1.8l3.1-4.5l-3-4.3H17.4z"/>
			<path class="st0" d="M31,218.7c-0.4,0.2-1.3,0.5-2.5,0.5c-2.6,0-4.4-1.8-4.4-4.5c0-2.7,1.8-4.6,4.7-4.6c0.9,0,1.8,0.2,2.2,0.5
				l-0.4,1.2c-0.4-0.2-1-0.4-1.8-0.4c-2,0-3.1,1.5-3.1,3.3c0,2,1.3,3.3,3,3.3c0.9,0,1.5-0.2,1.9-0.4L31,218.7z"/>
			<path class="st0" d="M32.8,206.2h1.6V219h-1.6V206.2z"/>
			<path class="st0" d="M44.4,216.6c0,0.9,0,1.7,0.1,2.4h-1.4l-0.1-1.4h0c-0.4,0.7-1.3,1.6-2.9,1.6c-1.4,0-3-0.8-3-3.8v-5.1h1.6v4.8
				c0,1.7,0.5,2.8,1.9,2.8c1.1,0,1.8-0.7,2.1-1.4c0.1-0.2,0.1-0.5,0.1-0.8v-5.4h1.6V216.6z"/>
			<path class="st0" d="M46.8,217.4c0.5,0.3,1.3,0.6,2.1,0.6c1.2,0,1.7-0.6,1.7-1.3c0-0.8-0.5-1.2-1.6-1.6c-1.6-0.6-2.3-1.4-2.3-2.5
				c0-1.4,1.1-2.6,3-2.6c0.9,0,1.7,0.3,2.1,0.5l-0.4,1.2c-0.3-0.2-1-0.5-1.8-0.5c-0.9,0-1.5,0.5-1.5,1.2c0,0.7,0.5,1,1.7,1.5
				c1.5,0.6,2.3,1.3,2.3,2.6c0,1.5-1.2,2.6-3.3,2.6c-1,0-1.8-0.2-2.5-0.6L46.8,217.4z"/>
			<path class="st0" d="M56,207.8c0,0.5-0.4,1-1,1c-0.6,0-1-0.4-1-1c0-0.6,0.4-1,1-1C55.6,206.8,56,207.3,56,207.8z M54.2,219v-8.7
				h1.6v8.7H54.2z"/>
			<path class="st0" d="M59,210.3l1.7,4.9c0.3,0.8,0.5,1.5,0.7,2.2h0.1c0.2-0.7,0.4-1.4,0.7-2.2l1.7-4.9h1.7l-3.4,8.7h-1.5l-3.3-8.7
				H59z"/>
			<path class="st0" d="M67.8,214.9c0,2.1,1.4,3,3,3c1.1,0,1.8-0.2,2.4-0.4l0.3,1.1c-0.6,0.3-1.5,0.5-2.9,0.5
				c-2.7,0-4.3-1.8-4.3-4.4c0-2.6,1.6-4.7,4.1-4.7c2.9,0,3.6,2.5,3.6,4.1c0,0.3,0,0.6-0.1,0.7H67.8z M72.5,213.8
				c0-1-0.4-2.6-2.2-2.6c-1.6,0-2.3,1.5-2.4,2.6H72.5z"/>
			<path class="st0" d="M79.8,206.9h1.6v10.8h5.2v1.3h-6.8V206.9z"/>
			<path class="st0" d="M96,214.6c0,3.2-2.2,4.6-4.3,4.6c-2.4,0-4.2-1.7-4.2-4.5c0-2.9,1.9-4.6,4.3-4.6
				C94.3,210.1,96,211.9,96,214.6z M89,214.7c0,1.9,1.1,3.4,2.7,3.4c1.5,0,2.7-1.4,2.7-3.4c0-1.5-0.7-3.4-2.6-3.4
				C89.8,211.3,89,213,89,214.7z"/>
			<path class="st0" d="M98.4,210.3l1.9,5.2c0.2,0.6,0.4,1.3,0.6,1.8h0c0.2-0.5,0.3-1.2,0.6-1.8l1.7-5.1h1.7l-2.4,6.2
				c-1.1,3-1.9,4.5-3,5.5c-0.8,0.7-1.6,1-1.9,1l-0.4-1.3c0.4-0.1,0.9-0.4,1.4-0.8c0.4-0.3,1-1,1.3-1.8c0.1-0.2,0.1-0.3,0.1-0.4
				c0-0.1,0-0.2-0.1-0.4l-3.2-8H98.4z"/>
			<path class="st0" d="M111.1,219l-0.1-1.1h-0.1c-0.5,0.7-1.4,1.3-2.7,1.3c-1.8,0-2.7-1.2-2.7-2.5c0-2.1,1.9-3.3,5.2-3.2v-0.2
				c0-0.7-0.2-2-2-2c-0.8,0-1.7,0.3-2.3,0.6l-0.4-1c0.7-0.5,1.8-0.8,2.9-0.8c2.7,0,3.3,1.8,3.3,3.6v3.3c0,0.8,0,1.5,0.1,2.1H111.1z
				 M110.9,214.6c-1.7,0-3.7,0.3-3.7,2c0,1,0.7,1.5,1.5,1.5c1.1,0,1.9-0.7,2.1-1.5c0.1-0.2,0.1-0.3,0.1-0.5V214.6z"/>
			<path class="st0" d="M115,206.2h1.6V219H115V206.2z"/>
			<path class="st0" d="M121.1,207.8v2.5h2.3v1.2h-2.3v4.7c0,1.1,0.3,1.7,1.2,1.7c0.4,0,0.7-0.1,0.9-0.1l0.1,1.2
				c-0.3,0.1-0.8,0.2-1.4,0.2c-0.7,0-1.3-0.2-1.7-0.7c-0.5-0.5-0.6-1.2-0.6-2.3v-4.8h-1.4v-1.2h1.4v-2.1L121.1,207.8z"/>
			<path class="st0" d="M125.9,210.3l1.9,5.2c0.2,0.6,0.4,1.3,0.6,1.8h0c0.2-0.5,0.3-1.2,0.6-1.8l1.7-5.1h1.7l-2.4,6.2
				c-1.1,3-1.9,4.5-3,5.5c-0.8,0.7-1.6,1-1.9,1l-0.4-1.3c0.4-0.1,0.9-0.4,1.4-0.8c0.4-0.3,1-1,1.3-1.8c0.1-0.2,0.1-0.3,0.1-0.4
				c0-0.1,0-0.2-0.1-0.4l-3.2-8H125.9z"/>
			<path class="st0" d="M137.8,207c0.8-0.1,1.7-0.2,3-0.2c1.6,0,2.7,0.4,3.4,1c0.7,0.6,1.1,1.5,1.1,2.5c0,1.1-0.3,2-0.9,2.6
				c-0.8,0.9-2.2,1.3-3.7,1.3c-0.5,0-0.9,0-1.3-0.1v4.9h-1.6V207z M139.3,212.9c0.3,0.1,0.8,0.1,1.3,0.1c1.9,0,3-0.9,3-2.6
				c0-1.6-1.1-2.4-2.9-2.4c-0.7,0-1.2,0.1-1.5,0.1V212.9z"/>
			<path class="st0" d="M147,213c0-1,0-1.9-0.1-2.7h1.4l0.1,1.7h0.1c0.4-1.2,1.4-1.9,2.4-1.9c0.2,0,0.3,0,0.5,0.1v1.5
				c-0.2,0-0.3-0.1-0.5-0.1c-1.1,0-1.9,0.8-2.1,2c0,0.2-0.1,0.5-0.1,0.7v4.7H147V213z"/>
			<path class="st0" d="M160.6,214.6c0,3.2-2.2,4.6-4.3,4.6c-2.4,0-4.2-1.7-4.2-4.5c0-2.9,1.9-4.6,4.3-4.6
				C159,210.1,160.6,211.9,160.6,214.6z M153.7,214.7c0,1.9,1.1,3.4,2.6,3.4c1.5,0,2.7-1.4,2.7-3.4c0-1.5-0.7-3.4-2.6-3.4
				C154.5,211.3,153.7,213,153.7,214.7z"/>
			<path class="st0" d="M170.2,210.3c0,0.6-0.1,1.3-0.1,2.4v5.1c0,2-0.4,3.2-1.2,4c-0.8,0.8-2.1,1-3.2,1c-1,0-2.2-0.3-2.9-0.7
				l0.4-1.2c0.6,0.4,1.5,0.7,2.6,0.7c1.6,0,2.8-0.8,2.8-3.1v-1h0c-0.5,0.8-1.4,1.5-2.8,1.5c-2.2,0-3.7-1.8-3.7-4.3
				c0-3,1.9-4.6,3.9-4.6c1.5,0,2.3,0.8,2.7,1.5h0l0.1-1.3H170.2z M168.5,213.7c0-0.3,0-0.5-0.1-0.7c-0.3-0.9-1.1-1.7-2.2-1.7
				c-1.5,0-2.6,1.3-2.6,3.3c0,1.7,0.9,3.1,2.6,3.1c1,0,1.9-0.6,2.2-1.6c0.1-0.3,0.1-0.6,0.1-0.8V213.7z"/>
			<path class="st0" d="M172.6,213c0-1,0-1.9-0.1-2.7h1.4l0.1,1.7h0.1c0.4-1.2,1.4-1.9,2.4-1.9c0.2,0,0.3,0,0.5,0.1v1.5
				c-0.2,0-0.3-0.1-0.5-0.1c-1.1,0-1.9,0.8-2.1,2c0,0.2-0.1,0.5-0.1,0.7v4.7h-1.6V213z"/>
			<path class="st0" d="M183.3,219l-0.1-1.1h-0.1c-0.5,0.7-1.4,1.3-2.7,1.3c-1.8,0-2.7-1.2-2.7-2.5c0-2.1,1.9-3.3,5.2-3.2v-0.2
				c0-0.7-0.2-2-2-2c-0.8,0-1.7,0.3-2.3,0.6l-0.4-1c0.7-0.5,1.8-0.8,2.9-0.8c2.7,0,3.3,1.8,3.3,3.6v3.3c0,0.8,0,1.5,0.1,2.1H183.3z
				 M183.1,214.6c-1.7,0-3.7,0.3-3.7,2c0,1,0.7,1.5,1.5,1.5c1.1,0,1.9-0.7,2.1-1.5c0.1-0.2,0.1-0.3,0.1-0.5V214.6z"/>
			<path class="st0" d="M187.2,212.6c0-0.9,0-1.6-0.1-2.4h1.4l0.1,1.4h0.1c0.5-0.8,1.3-1.6,2.7-1.6c1.2,0,2.1,0.7,2.5,1.7h0
				c0.3-0.5,0.6-0.9,1-1.1c0.5-0.4,1.1-0.6,1.9-0.6c1.2,0,2.9,0.8,2.9,3.8v5.1h-1.6v-4.9c0-1.7-0.6-2.7-1.9-2.7
				c-0.9,0-1.6,0.7-1.9,1.4c-0.1,0.2-0.1,0.5-0.1,0.8v5.4h-1.6v-5.2c0-1.4-0.6-2.4-1.8-2.4c-1,0-1.7,0.8-2,1.6
				c-0.1,0.2-0.1,0.5-0.1,0.8v5.3h-1.6V212.6z"/>
		</g>
	</g>
	<g>
		<g>
			<path d="M198,175.7c0,9-7.3,16.3-16.3,16.3H25.8c-9,0-16.3-7.3-16.3-16.3V19.9c0-9,7.3-16.3,16.3-16.3h155.8
				c9,0,16.3,7.3,16.3,16.3V175.7z"/>
			<path class="st0" d="M181.6,193.2H25.8c-9.6,0-17.5-7.8-17.5-17.5V19.9c0-9.6,7.8-17.5,17.5-17.5h155.8c9.6,0,17.5,7.8,17.5,17.5
				v155.8C199.1,185.4,191.3,193.2,181.6,193.2z M25.8,4.8c-8.4,0-15.2,6.8-15.2,15.2v155.8c0,8.4,6.8,15.2,15.2,15.2h155.8
				c8.4,0,15.2-6.8,15.2-15.2V19.9c0-8.4-6.8-15.2-15.2-15.2H25.8z"/>
		</g>
		<g>
			<defs>
				<path id="SVGID_1_" d="M196.9,175.8c0,8.9-7.3,16.2-16.2,16.2H25.7c-8.9,0-16.2-7.3-16.2-16.2V21c0-8.9,7.3-16.2,16.2-16.2
					h154.9c8.9,0,16.2,7.3,16.2,16.2V175.8z"/>
			</defs>
			<clipPath id="SVGID_2_">
				<use xlink:href="#SVGID_1_"  style="overflow:visible;"/>
			</clipPath>
			<g id="Untitled-2.psd" class="st1">
				<g>
					<defs>
						<rect id="SVGID_3_" x="10.2" y="-160.3" width="359" height="352.8"/>
					</defs>
					<clipPath id="SVGID_4_">
						<use xlink:href="#SVGID_3_"  style="overflow:visible;"/>
					</clipPath>
					<g style="clip-path:url(#SVGID_4_);">
						
							<image style="overflow:visible;" width="1975" height="1942" xlink:href="B174B8C44D2333EE.png"  transform="matrix(0.1818 0 0 0.1817 10.1555 -160.2871)">
						</image>
					</g>
				</g>
			</g>
		</g>
		<g>
			<g>
				<path class="st2" d="M46.9,129.1c-2.4,0-4.4-0.4-6.1-1.2c-1.7-0.8-3.1-1.9-4.2-3.4c-1.1-1.4-1.9-3.1-2.5-5.1
					c-0.5-2-0.8-4.1-0.8-6.4c0-2.3,0.3-4.5,0.8-6.5c0.5-2,1.4-3.7,2.5-5.2c1.1-1.5,2.5-2.6,4.2-3.4c1.7-0.8,3.8-1.2,6.1-1.2
					c2.4,0,4.4,0.4,6.1,1.2c1.7,0.8,3.1,1.9,4.2,3.4c1.1,1.4,1.9,3.2,2.5,5.2c0.5,2,0.8,4.2,0.8,6.5c0,2.3-0.3,4.5-0.8,6.4
					c-0.5,2-1.4,3.7-2.5,5.1c-1.1,1.4-2.5,2.6-4.2,3.4C51.3,128.7,49.3,129.1,46.9,129.1z M46.9,123.8c4.5,0,6.8-3.6,6.8-10.8
					c0-3.6-0.5-6.3-1.6-8.1c-1.1-1.8-2.8-2.7-5.1-2.7c-4.6,0-6.9,3.6-6.9,10.8C40.1,120.1,42.3,123.8,46.9,123.8z"/>
				<path class="st2" d="M65.1,97.2c0.9-0.2,1.8-0.3,2.6-0.3c0.9,0,1.8,0.1,2.7,0.3l12.1,20v-20c1-0.2,2-0.3,3-0.3
					c0.9,0,1.8,0.1,2.6,0.3v31.4c-0.9,0.2-1.8,0.3-2.5,0.3c-0.8,0-1.7-0.1-2.7-0.3l-12.2-20v20c-0.9,0.2-1.9,0.3-2.8,0.3
					c-1,0-1.9-0.1-2.8-0.3V97.2z"/>
				<path class="st2" d="M93.7,97.2h17.8c0.2,0.9,0.3,1.8,0.3,2.7c0,1-0.1,1.9-0.3,2.8h-11.4v6.8h9.1c0.2,0.9,0.3,1.8,0.3,2.7
					c0,0.9-0.1,1.9-0.3,2.8h-9.1v8.3h11.7c0.2,0.9,0.3,1.8,0.3,2.7c0,1-0.1,1.9-0.3,2.8H93.7V97.2z"/>
			</g>
			<g>
				<path class="st0" d="M34.1,136.7c1.1-0.2,2.1-0.3,3.1-0.3c1,0,2.1,0.1,3.2,0.3v25.9h10.9c0.1,0.5,0.1,1,0.2,1.4
					c0,0.5,0,0.9,0,1.3c0,0.5,0,0.9,0,1.4c0,0.4-0.1,0.9-0.2,1.4H34.1V136.7z"/>
				<path class="st0" d="M54.9,136.7h17.8c0.2,0.9,0.3,1.8,0.3,2.7c0,1-0.1,1.9-0.3,2.7H61.2v6.8h9.1c0.2,0.9,0.3,1.8,0.3,2.7
					c0,0.9-0.1,1.8-0.3,2.8h-9.1v8.3H73c0.2,0.9,0.3,1.8,0.3,2.7c0,1-0.1,1.9-0.3,2.8H54.9V136.7z"/>
				<path class="st0" d="M85.5,136.7c0.6-0.1,1.2-0.2,1.8-0.2c0.6,0,1.2-0.1,1.8-0.1c0.6,0,1.2,0,1.7,0.1c0.6,0,1.2,0.1,1.8,0.2
					l9.8,31.4c-1.2,0.2-2.4,0.3-3.5,0.3c-1.1,0-2.2-0.1-3.2-0.3l-1.8-6.3H83.6l-1.8,6.3c-1,0.2-2.1,0.3-3,0.3
					c-1.1,0-2.1-0.1-3.2-0.3L85.5,136.7z M92.5,156.5l-3.6-13.2l-3.8,13.2H92.5z"/>
				<path class="st0" d="M121.4,151.8c1.1-0.2,2.1-0.3,3.1-0.3c1,0,2.1,0.1,3.2,0.3v15.4c-1.5,0.6-3.1,0.9-4.7,1.1
					c-1.6,0.2-3.1,0.3-4.3,0.3c-2.6,0-4.8-0.4-6.7-1.2c-1.9-0.8-3.5-1.9-4.8-3.4c-1.3-1.4-2.2-3.1-2.9-5.1c-0.6-2-1-4.1-1-6.5
					c0-2.3,0.3-4.5,1-6.5c0.7-2,1.6-3.7,2.9-5.2c1.3-1.5,2.8-2.6,4.7-3.4c1.8-0.8,4-1.2,6.3-1.2c1.4,0,2.7,0.1,3.9,0.3
					c1.2,0.2,2.5,0.5,3.8,1.1c-0.1,0.9-0.2,1.7-0.5,2.5c-0.3,0.8-0.6,1.7-1,2.5c-1-0.4-1.9-0.6-2.7-0.7c-0.8-0.1-1.7-0.2-2.8-0.2
					c-2.8,0-4.9,0.9-6.4,2.7c-1.5,1.8-2.3,4.5-2.3,8.1c0,3.6,0.7,6.3,2.2,8c1.5,1.8,3.7,2.6,6.6,2.6c0.5,0,0.9,0,1.3-0.1
					c0.4-0.1,0.7-0.1,1.1-0.2V151.8z"/>
				<path class="st0" d="M132.3,136.7c0.6-0.1,1.1-0.1,1.6-0.2c0.5,0,1.1,0,1.6,0c0.5,0,1,0,1.5,0c0.5,0,1.1,0.1,1.6,0.2V153
					c0,1.8,0.1,3.3,0.2,4.6c0.1,1.3,0.4,2.3,0.8,3.1c0.4,0.8,1,1.4,1.7,1.8c0.7,0.4,1.6,0.6,2.8,0.6c1.1,0,2-0.2,2.7-0.6
					c0.7-0.4,1.3-1,1.7-1.8c0.4-0.8,0.6-1.9,0.8-3.1c0.1-1.3,0.2-2.8,0.2-4.6v-16.3c0.6-0.1,1.1-0.1,1.7-0.2c0.5,0,1,0,1.5,0
					c0.5,0,1,0,1.6,0c0.5,0,1.1,0.1,1.6,0.2v17.6c0,2.1-0.2,4.1-0.5,5.8c-0.4,1.8-1,3.3-1.9,4.5c-0.9,1.3-2.1,2.2-3.6,2.9
					c-1.5,0.7-3.4,1-5.8,1c-2.3,0-4.3-0.3-5.8-1c-1.5-0.7-2.7-1.7-3.6-2.9c-0.9-1.3-1.5-2.8-1.9-4.5c-0.4-1.8-0.5-3.7-0.5-5.8V136.7
					z"/>
				<path class="st0" d="M161.3,136.7h17.8c0.2,0.9,0.3,1.8,0.3,2.7c0,1-0.1,1.9-0.3,2.7h-11.4v6.8h9.1c0.2,0.9,0.3,1.8,0.3,2.7
					c0,0.9-0.1,1.8-0.3,2.8h-9.1v8.3h11.7c0.2,0.9,0.3,1.8,0.3,2.7c0,1-0.1,1.9-0.3,2.8h-18.1V136.7z"/>
			</g>
		</g>
	</g>
</g>
</svg>
