<?xml version="1.0" encoding="utf-8"?>
<!-- Generator: Adobe Illustrator 21.1.0, SVG Export Plug-In . SVG Version: 6.00 Build 0)  -->
<svg version="1.1" id="Layer_1" xmlns="http://www.w3.org/2000/svg" xmlns:xlink="http://www.w3.org/1999/xlink" x="0px" y="0px"
	 viewBox="0 0 200 100" style="enable-background:new 0 0 200 100;" xml:space="preserve">
<style type="text/css">
	.st0{fill-rule:evenodd;clip-rule:evenodd;fill:#F48120;}
	.st1{fill:#FFFFFF;}
	.st2{fill-rule:evenodd;clip-rule:evenodd;fill:#FFFFFF;}
</style>
<g>
	<g>
		<polygon class="st0" points="0,0.2 200,0.2 200,100 0,100 0,0.2 		"/>
	</g>
	<g>
		<g>
			<path class="st1" d="M38.7,57.2l2.1-2.5c1.9,1.7,3.9,2.6,6.3,2.6c2.2,0,3.6-1,3.6-2.5v-0.1c0-1.4-0.8-2.2-4.5-3.1
				c-4.3-1-6.7-2.3-6.7-6v-0.1c0-3.4,2.9-5.8,6.9-5.8c2.9,0,5.2,0.9,7.3,2.5l-1.9,2.7c-1.8-1.3-3.6-2.1-5.5-2.1
				c-2.1,0-3.3,1.1-3.3,2.4v0.1c0,1.6,0.9,2.2,4.8,3.2c4.3,1,6.5,2.6,6.5,5.9v0.1c0,3.8-3,6-7.2,6C44,60.4,41.1,59.4,38.7,57.2z"/>
		</g>
		<g>
			<path class="st1" d="M57.6,50.1L57.6,50.1c0-5.8,4.3-10.4,10.4-10.4c3.7,0,5.9,1.3,7.9,3.1l-2.3,2.6c-1.6-1.5-3.3-2.5-5.6-2.5
				c-3.8,0-6.6,3.2-6.6,7.1v0.1c0,3.9,2.8,7.1,6.6,7.1c2.5,0,4-1,5.8-2.6l2.3,2.3c-2.1,2.2-4.4,3.6-8.2,3.6
				C61.9,60.5,57.6,55.9,57.6,50.1z"/>
		</g>
		<g>
			<path class="st1" d="M79.3,51.6V40h3.5v11.4c0,3.7,1.9,5.7,5.1,5.7c3.1,0,5-1.9,5-5.6V40h3.5v11.4c0,6-3.4,9-8.6,9
				C82.6,60.4,79.3,57.4,79.3,51.6z"/>
		</g>
		<g>
			<path class="st1" d="M101.3,40h3.5v16.9h10.6v3.2h-14.1V40z"/>
		</g>
		<g>
			<path class="st1" d="M119.1,40h3.5v16.9h10.6v3.2h-14.1V40z"/>
		</g>
		<g>
			<path class="st1" d="M136.9,40h14.9v3.2h-11.4v5.2h10.1v3.2h-10.1V57h11.5v3.2h-15V40z"/>
		</g>
		<g>
			<path class="st1" d="M156.1,40h9c2.5,0,4.5,0.8,5.8,2c1.1,1.1,1.7,2.6,1.7,4.3v0.1c0,3.3-2,5.3-4.8,6.1l5.4,7.6H169l-4.9-7h-4.4
				v7h-3.5V40z M164.8,50c2.5,0,4.1-1.3,4.1-3.4v-0.1c0-2.2-1.6-3.3-4.2-3.3h-5.1V50H164.8z"/>
		</g>
		<g>
			<path class="st1" d="M175.5,57.2l2.1-2.5c1.9,1.7,3.8,2.6,6.3,2.6c2.2,0,3.6-1,3.6-2.5v-0.1c0-1.4-0.8-2.2-4.5-3.1
				c-4.3-1-6.7-2.3-6.7-6v-0.1c0-3.4,2.9-5.8,6.9-5.8c2.9,0,5.2,0.9,7.3,2.5l-1.9,2.7c-1.8-1.3-3.6-2.1-5.4-2.1
				c-2.1,0-3.3,1.1-3.3,2.4v0.1c0,1.6,0.9,2.2,4.8,3.2c4.3,1,6.5,2.6,6.5,5.9v0.1c0,3.8-3,6-7.2,6C180.8,60.4,177.9,59.4,175.5,57.2
				z"/>
		</g>
		<g>
			<g>
				<g>
					<path class="st1" d="M20.9,62.4c-6.8,0-12.4-5.5-12.4-12.4c0-6.8,5.5-12.4,12.4-12.4c6.8,0,12.4,5.5,12.4,12.4
						C33.3,56.9,27.7,62.4,20.9,62.4z M20.9,38.5c-6.4,0-11.6,5.2-11.6,11.6c0,6.4,5.2,11.6,11.6,11.6c6.4,0,11.6-5.2,11.6-11.6
						C32.5,43.7,27.3,38.5,20.9,38.5z"/>
				</g>
			</g>
			<g>
				<path class="st2" d="M25.9,48.3c0.9,0,2.4-0.8,3.3-1.3c0.2-0.1,0.4-0.2,0.5-0.3l0.1,0l-0.9-1.9l-1.8,1c-0.8,0.5-1.8,1.3-1.9,1.9
					l-4.3,2.3l-4.3-2.3c-0.1-1-2-2-3.1-2.6c-0.2-0.1-0.4-0.2-0.5-0.3l-0.1,0L12,46.7l1.8,1c0.7,0.4,1.5,0.6,2.1,0.6
					c0.2,0,0.4,0,0.5-0.1l4,2.2l-8.2,4.5c-0.1,0.1-0.2,0.2-0.1,0.3c0,0.1,0.1,0.2,0.2,0.2c0,0,0.1,0,0.1,0l8.5-4.6l8.5,4.6
					c0,0,0.1,0,0.1,0c0.1,0,0.2-0.1,0.2-0.2c0-0.1,0-0.2-0.1-0.3l-8.2-4.4l4-2.2C25.5,48.3,25.7,48.3,25.9,48.3z"/>
			</g>
		</g>
	</g>
</g>
</svg>
